<?xml version="1.0" encoding="UTF-8"?>
<svg width="24px" height="24px" viewBox="0 0 24 24" version="1.1" xmlns="http://www.w3.org/2000/svg" xmlns:xlink="http://www.w3.org/1999/xlink">
    <!-- Generator: Sketch 52 (66869) - http://www.bohemiancoding.com/sketch -->
    <title>Icon/Grid</title>
    <desc>Created with Sketch.</desc>
    <defs>
        <path d="M2,11.253 C1.44771525,11.253 1,10.8052847 1,10.253 L1,2 C1,1.44771525 1.44771525,1 2,1 L9.687,1 C10.2392847,1 10.687,1.44771525 10.687,2 L10.687,10.253 C10.687,10.8052847 10.2392847,11.253 9.687,11.253 L2,11.253 Z M2.2,10.053 L9.487,10.053 L9.487,2.2 L2.2,2.2 L2.2,10.053 Z M14,11.253 C13.4477153,11.253 13,10.8052847 13,10.253 L13,2 C13,1.44771525 13.4477153,1 14,1 L21.687,1 C22.2392847,1 22.687,1.44771525 22.687,2 L22.687,10.253 C22.687,10.8052847 22.2392847,11.253 21.687,11.253 L14,11.253 Z M21.487,10.053 L21.487,2.2 L14.2,2.2 L14.2,10.053 L21.487,10.053 Z M2,23.253 C1.44771525,23.253 1,22.8052847 1,22.253 L1,14 C1,13.4477153 1.44771525,13 2,13 L9.687,13 C10.2392847,13 10.687,13.4477153 10.687,14 L10.687,22.253 C10.687,22.8052847 10.2392847,23.253 9.687,23.253 L2,23.253 Z M2.2,22.053 L9.487,22.053 L9.487,14.2 L2.2,14.2 L2.2,22.053 Z M14,23.253 C13.4477153,23.253 13,22.8052847 13,22.253 L13,14 C13,13.4477153 13.4477153,13 14,13 L21.687,13 C22.2392847,13 22.687,13.4477153 22.687,14 L22.687,22.253 C22.687,22.8052847 22.2392847,23.253 21.687,23.253 L14,23.253 Z M14.2,22.053 L21.487,22.053 L21.487,14.2 L14.2,14.2 L14.2,22.053 Z" id="path-1"></path>
    </defs>
    <g id="Icon/Grid" stroke="none" stroke-width="1" fill="none" fill-rule="evenodd">
        <mask id="mask-2" fill="white">
            <use xlink:href="#path-1"></use>
        </mask>
        <use id="Combined-Shape" fill="#ACBACC" fill-rule="nonzero" xlink:href="#path-1"></use>
        <g id="Colour/Primary-Grey" mask="url(#mask-2)" fill="#6C798B">
            <rect x="0" y="0" width="24" height="24"></rect>
        </g>
    </g>
</svg>