<svg xmlns="http://www.w3.org/2000/svg" width="191" height="191" viewBox="0 0 191 191">
    <g fill="#FFF" fill-rule="evenodd">
        <circle cx="95.5" cy="95.5" r="95.5" fill-opacity=".3"/>
        <path d="M125.288 105.538h3.809V85.412h-3.809v20.126zm-87.84 0h-12.15V85.412h12.03v3.076h-8.191v5.464h7.285v3.046h-7.285v5.465h8.312v3.075zm16.112-5.644c0 1.793-.65 3.22-1.949 4.286-1.3 1.065-3.008 1.598-5.124 1.598-2.298 0-4.202-.428-5.713-1.284v-3.853c1.733 1.235 3.628 1.852 5.683 1.852.926 0 1.672-.224 2.237-.672.563-.448.846-1.05.846-1.807 0-.358-.071-.676-.211-.955-.142-.28-.43-.557-.862-.836a13.499 13.499 0 0 0-.997-.597c-.233-.12-.71-.339-1.436-.657-.202-.1-.353-.17-.454-.21a20.879 20.879 0 0 1-1.813-.91c-.464-.27-.967-.632-1.512-1.09a4.376 4.376 0 0 1-1.224-1.643c-.273-.637-.408-1.363-.408-2.18 0-1.712.639-3.085 1.92-4.12 1.28-1.035 2.977-1.554 5.092-1.554 1.915 0 3.568.329 4.958.985v3.645c-1.511-.897-3.124-1.345-4.836-1.345-.947 0-1.688.209-2.223.627-.533.419-.8.956-.8 1.613 0 .656.287 1.2.862 1.627.573.429 1.435.902 2.584 1.42.805.357 1.461.67 1.965.94.503.268 1.052.642 1.647 1.12a4.51 4.51 0 0 1 1.33 1.716c.292.668.438 1.429.438 2.284zm15.96 0c0 1.793-.65 3.22-1.95 4.286-1.299 1.065-3.008 1.598-5.123 1.598-2.297 0-4.201-.428-5.713-1.284v-3.853c1.733 1.235 3.627 1.852 5.683 1.852.926 0 1.672-.224 2.237-.672.563-.448.845-1.05.845-1.807 0-.358-.07-.676-.21-.955-.142-.28-.429-.557-.862-.836a13.499 13.499 0 0 0-.997-.597c-.233-.12-.71-.339-1.437-.657-.201-.1-.352-.17-.454-.21a21.088 21.088 0 0 1-1.813-.91c-.463-.27-.967-.632-1.512-1.09a4.376 4.376 0 0 1-1.224-1.643c-.27-.637-.408-1.363-.408-2.18 0-1.712.64-3.085 1.92-4.12 1.28-1.035 2.978-1.554 5.093-1.554 1.914 0 3.568.329 4.957.985v3.645c-1.51-.897-3.122-1.345-4.836-1.345-.947 0-1.687.209-2.22.627-.536.419-.802.956-.802 1.613 0 .656.286 1.2.861 1.627.575.429 1.437.902 2.585 1.42.806.357 1.46.67 1.964.94.504.268 1.053.642 1.648 1.12a4.51 4.51 0 0 1 1.33 1.716c.292.668.437 1.429.437 2.284zm2.838 22.11c.424-.858.899-1.695 1.41-2.489.519-.803 1.022-1.592 1.51-2.364.524-.72 1.041-1.438 1.56-2.165a74.108 74.108 0 0 1 1.605-2.162c.46-.62.962-1.254 1.491-1.883a7.088 7.088 0 0 1 1.889-1.585c.35-.192.779-.33 1.28-.409.07-.01.136-.017.2-.017.31 0 .728.136.952.777.131.368.138.733.023 1.084-.11.335-.277.673-.495 1.007-.217.329-.451.644-.696.939a13.65 13.65 0 0 0-.59.758 37.314 37.314 0 0 1-4.11 4.958 43.219 43.219 0 0 1-4.858 4.237c-.152.365-.325.753-.516 1.156-.194.41-.37.85-.52 1.306-.15.453-.255.905-.315 1.345-.053.384-.047.755.019 1.104a16.5 16.5 0 0 1 1.49-.189c.273-.018.346-.046.361-.054l.033-.012c.907-.184 1.81-.432 2.683-.738a37.993 37.993 0 0 0 2.6-1.018 3.8 3.8 0 0 0 .86-.365c.094-.053.19-.093.294-.122l4.516-2.201c.121-.061.402-.185.854-.374a7.538 7.538 0 0 1 1.327-.425c.444-.096.833-.103 1.157-.023.265.068.55.299.418 1.013-.066.3-.204.598-.411.888a2.97 2.97 0 0 0-.417.8c-.186.412-.36.905-.525 1.48-.15.526-.115.943.107 1.276.484.048 1.023-.016 1.607-.188a33.423 33.423 0 0 0 1.709-.555c.761-.272 3.604-1.707 4.326-2.015 1.107-.474 2.141-1.126 3.153-1.776a50.61 50.61 0 0 0 3.582-2.528c.569-1.094 1.14-2.222 1.701-3.358a39.733 39.733 0 0 1 1.86-3.353c.24-.456.527-.965.847-1.505.323-.548.697-1.07 1.112-1.552.417-.486.88-.9 1.377-1.23a3.047 3.047 0 0 1 1.719-.509c.696 0 1.13.2 1.29.594.148.369.149.796.002 1.274a5.99 5.99 0 0 1-.63 1.375c-.284.462-.513.794-.7 1.015a28.99 28.99 0 0 1-2.519 3.25 32.892 32.892 0 0 1-2.941 2.89c-.331.334-.688.665-1.054.975-.357.3-.703.606-1.032.908l-1.806 3.479c-.024.834.139 1.413.483 1.72.35.314.861.428 1.522.34.408-.088.819-.205 1.21-.342.41-.145.81-.292 1.185-.44.258-.115.575-.306.933-.564a2.37 2.37 0 0 1 .697-.355 40.645 40.645 0 0 0 1.624-.882 15.378 15.378 0 0 1 1.781-.872 4.874 4.874 0 0 1 1.716-1.748 7.053 7.053 0 0 1 2.38-.921c.446-.065.951-.064 1.525-.002.597.067 1.067.317 1.393.747.243.28.304.592.179.92a2.35 2.35 0 0 1-.58.838 5.709 5.709 0 0 1-.892.689c-.321.201-.558.348-.71.44a6.633 6.633 0 0 1-1.844.781 5.908 5.908 0 0 1-2.035.167h-.01c.128.57.379 1.023.748 1.343a3.86 3.86 0 0 0 1.461.785 5.273 5.273 0 0 0 1.766.204c.614-.03 1.186-.092 1.7-.185a19.657 19.657 0 0 0 4.178-1.381c.305-.155.621-.304.94-.442a9.24 9.24 0 0 0 .88-.436l.03-.01c.243-.071.503-.036.76.103.135.072.218.171.25.292.035.148-.008.312-.133.502-.167.27-.405.46-.71.564a8.998 8.998 0 0 0-.721.274l-2.287 1.02a39.09 39.09 0 0 1-4.184 1.399 6.963 6.963 0 0 1-1.897.12 5.49 5.49 0 0 1-1.781-.428 4.708 4.708 0 0 1-1.483-1.026c-.442-.446-.761-1.028-.95-1.729-.06-.243-.114-.496-.162-.754a1.772 1.772 0 0 1-.025-.487 8.249 8.249 0 0 0-.737.414l-.16.1c-.255.16-.485.305-.686.434a2.433 2.433 0 0 0-.38.209.715.715 0 0 1-.276.217l-2.15 1.02c-.642.248-1.354.492-2.122.726-.782.238-1.547.262-2.269.07-.552-.205-1.01-.579-1.372-1.114a88.85 88.85 0 0 1-1.799 3.35 115.96 115.96 0 0 1-2.038 3.459c-.09.152-.263.426-.528.839-.264.405-.543.784-.834 1.127-.303.355-.621.602-.943.733a.68.68 0 0 1-.256.053c-.268 0-.499-.179-.687-.531a1.735 1.735 0 0 1-.199-.853 5.4 5.4 0 0 1 .093-.975c.063-.33.141-.654.233-.965.091-.309.168-.57.228-.786.218-.664.56-1.405 1.02-2.212a17.901 17.901 0 0 1 1.636-2.384 20.909 20.909 0 0 1 2.027-2.172c.71-.658 1.438-1.18 2.164-1.555l.417-.842c.057-.117.115-.234.177-.35l-1.473 1.03c-1.653 1.156-3.416 1.939-5.212 2.818-1.332.651-2.757 1.257-4.12 1.902-.697.33-1.425.56-2.162.684-.71.101-1.186-.06-1.458-.475-.258-.392-.39-.892-.39-1.49 0-.58.087-1.216.257-1.89.139-.553.288-1.08.444-1.572-.606.237-1.213.46-1.808.665-.661.23-1.32.5-1.954.806a21.08 21.08 0 0 0-1.639.832l-.03.012-.056.01a2.623 2.623 0 0 1-.383.216l-5.315 1.998c-.51.182-1.015.375-1.507.578a4.804 4.804 0 0 1-1.552.358 2.389 2.389 0 0 1-.315.022c-.344 0-.636-.086-.869-.256a1.695 1.695 0 0 1-.619-.854 2.82 2.82 0 0 1-.121-1.12 6.17 6.17 0 0 1 .187-1.115c.175-.61.394-1.225.652-1.836a35.776 35.776 0 0 1-3.58 2.037l-.03.01c-.355.072-.657-.046-.887-.35-.112-.15-.152-.297-.12-.439.04-.169.175-.311.417-.435.942-.43 1.86-.912 2.739-1.435a41.858 41.858 0 0 0 2.619-1.691zm44.347-33.486v17.02h-3.839v-17.02h-5.17v-3.106h14.177v3.106h-5.168zm-15.779 12.392c-.162-1.653-.242-4.021-.242-7.108v-8.39h3.839v20.126h-4.353l-4.957-8.36a79.96 79.96 0 0 1-2.13-3.779c-.636-1.203-1.074-2.074-1.316-2.612l-.362-.836c.22 1.891.332 4.29.332 7.197v8.39h-3.809V85.412h4.322l4.898 8.39a115.676 115.676 0 0 1 2.16 3.838c.636 1.185 1.063 2.026 1.286 2.524l.332.746zm-10.694 11.952c.546-.685 1.776-1.107 2.6-1.107.501 0 .834.157.935.443.167.473-.324 1.193-1.46 2.141-.389.326-.787.503-1.122.503a.827.827 0 0 1-.498-.158c-.4-.294-.636-.608-.703-.933-.063-.3.023-.607.248-.889zm-17.66-27.45h12.031v3.076h-8.19v5.464h7.283v3.046h-7.284v5.465h8.312v3.075H72.572V85.412zM88.305 70.33h-3.578v11.78h-2.656V70.33h-3.576v-2.15h9.81v2.15zm13.282 11.78H98.93V76.26h-5.795v5.849H90.5V68.18h2.636v5.83h5.795v-5.83h2.656v13.93zm10.918 0h-8.408V68.18h8.325v2.13h-5.668v3.781h5.04V76.2h-5.04v3.781h5.751v2.13zm10.86-2.153s2.942-9.05 13.055-16.33c0 0-7.563 2.739-15.744 13.672 0 0-4.007-12.455 6.136-18.654 3.67-2.242 9.16-2.99 17.313-2.99 0 0 3.39 30.14-20.76 24.302zm27.345 25.581h-4.112l-1.45-4.568h-7.708l-1.45 4.568h-3.992l6.893-20.126h4.927l6.892 20.126zm14.992 0h-11.759V85.412h3.81v16.782h7.949v3.344zm-27.265-7.643h5.743l-.272-.897a291.248 291.248 0 0 1-1.678-5.42 134.9 134.9 0 0 1-.8-2.762l-.121-.597c-.181.996-1.049 3.932-2.6 8.809l-.272.867zM96.583 130.42c.63-.994 1.24-2.005 1.813-3.014a13.806 13.806 0 0 0-2.514 2.632c-.781 1.063-1.27 2.167-1.453 3.29.77-.893 1.493-1.87 2.154-2.908zm15.925-7.283a2.969 2.969 0 0 0-.48.667 5.163 5.163 0 0 0 1.86-.53 6.628 6.628 0 0 0 1.616-1.12 2.479 2.479 0 0 0-.655-.092c-.111 0-.224.008-.335.025-.397.06-.768.18-1.103.357-.335.179-.639.411-.903.693zm-7.6-5.595l-.297.539c.427-.403.846-.816 1.257-1.232a21.914 21.914 0 0 0 1.729-1.983 16.11 16.11 0 0 0 1.729-2.352c.15-.215.3-.482.452-.802.108-.23.184-.458.228-.679-.241.114-.47.27-.686.465-.283.257-.55.513-.795.76-.57.608-1.098 1.26-1.565 1.932a37.19 37.19 0 0 0-1.345 2.081c-.242.429-.478.854-.707 1.271zm-29.272 1.446c-.17.27-.338.544-.502.822.093-.082.187-.165.282-.251l.846-.765a35.758 35.758 0 0 0 3.92-4.39 15.977 15.977 0 0 0 1.548-2.214c.053-.14.147-.341.271-.575.061-.117.118-.237.171-.355a5.108 5.108 0 0 0-.857.675c-.38.37-.692.68-.936.927a24.848 24.848 0 0 0-1.957 2.238c-.6.774-1.215 1.593-1.829 2.434-.33.485-.652.975-.957 1.454z"/>
    </g>
</svg>
