<?xml version="1.0" encoding="UTF-8"?>
<svg width="202px" height="43px" viewBox="0 0 202 43" version="1.1" xmlns="http://www.w3.org/2000/svg" xmlns:xlink="http://www.w3.org/1999/xlink">
    <!-- Generator: Sketch 51.2 (57519) - http://www.bohemiancoding.com/sketch -->
    <title>Group 2</title>
    <desc>Created with Sketch.</desc>
    <defs></defs>
    <g id="Page-1" stroke="none" stroke-width="1" fill="none" fill-rule="evenodd">
        <g id="Collection-Updated-Layout" transform="translate(-120.000000, -17.000000)" fill="#2E2F42">
            <g id="Group-2" transform="translate(120.000000, 17.000000)">
                <path d="M111.692721,35.8037634 L114.737458,35.8037634 L114.737458,19.3175763 L111.692721,19.3175763 L111.692721,35.8037634 Z M41.4733403,35.8037634 L31.7598322,35.8037634 L31.7598322,19.3175763 L41.3764105,19.3175763 L41.3764105,21.8374857 L34.8285162,21.8374857 L34.8285162,26.3128356 L40.6522877,26.3128356 L40.6522877,28.808504 L34.8285162,28.808504 L34.8285162,33.2850083 L41.4733403,33.2850083 L41.4733403,35.8037634 Z M54.3524622,31.1806588 C54.3524622,32.6489707 53.8336026,33.8183102 52.7947431,34.6909861 C51.7547431,35.563662 50.3897432,36 48.698603,36 C46.8614978,36 45.3391295,35.6490827 44.131498,34.9484024 L44.131498,31.7924554 C45.5170243,32.8036513 47.0314101,33.3092493 48.6746556,33.3092493 C49.4147433,33.3092493 50.0111468,33.1257103 50.4627257,32.7586323 C50.9131642,32.3915544 51.1389537,31.8986541 51.1389537,31.2787771 C51.1389537,30.9855765 51.0819362,30.7246972 50.9701818,30.4961392 C50.857287,30.2675812 50.6269362,30.0401776 50.2814099,29.8116196 C49.9347432,29.5830616 49.6690415,29.4203007 49.4843047,29.3221823 C49.2984275,29.224064 48.91641,29.0451424 48.3359714,28.7842631 C48.175182,28.7023054 48.0543048,28.6457431 47.9733399,28.6122674 C47.3769364,28.3352274 46.894568,28.0870458 46.523954,27.8665681 C46.15334,27.6460905 45.7507962,27.3494269 45.3151822,26.9742686 C44.8807085,26.5991103 44.5545682,26.1500746 44.3367612,25.628316 C44.1189542,25.1065574 44.0106208,24.5120758 44.0106208,23.8425625 C44.0106208,22.4400477 44.521498,21.3157271 45.545533,20.4672922 C46.5684277,19.6200116 47.9254451,19.195217 49.6165854,19.195217 C51.1469361,19.195217 52.4686027,19.4641766 53.5793044,20.0020959 L53.5793044,22.9872016 C52.3716729,22.2530457 51.0819362,21.8859677 49.7135152,21.8859677 C48.9563223,21.8859677 48.3644802,22.0568091 47.9368486,22.399646 C47.5103574,22.742483 47.2971118,23.1822839 47.2971118,23.7202032 C47.2971118,24.2581225 47.5263224,24.7036951 47.9858837,25.0534581 C48.4443048,25.4043754 49.1330766,25.7922313 50.0521994,26.2158716 C50.6953572,26.5090723 51.2199186,26.7653343 51.6224624,26.9858119 C52.0250063,27.2062895 52.4640413,27.5121878 52.9395676,27.9035068 C53.4139535,28.2948258 53.7686026,28.7634851 54.0023746,29.3094847 C54.2361465,29.8566386 54.3524622,30.4799785 54.3524622,31.1806588 Z M67.110707,31.1806588 C67.110707,32.6489707 66.5918474,33.8183102 65.5529878,34.6909861 C64.5141282,35.563662 63.147988,36 61.4568477,36 C59.6208829,36 58.0985146,35.6490827 56.8897428,34.9484024 L56.8897428,31.7924554 C58.275269,32.8036513 59.7896549,33.3092493 61.4329004,33.3092493 C62.172988,33.3092493 62.7693915,33.1257103 63.2209704,32.7586323 C63.671409,32.3915544 63.8971984,31.8986541 63.8971984,31.2787771 C63.8971984,30.9855765 63.8413212,30.7246972 63.7284265,30.4961392 C63.6155318,30.2675812 63.3863213,30.0401776 63.0396546,29.8116196 C62.692988,29.5830616 62.4272863,29.4203007 62.2425494,29.3221823 C62.0566722,29.224064 61.6746547,29.0451424 61.0942162,28.7842631 C60.9334267,28.7023054 60.8125495,28.6457431 60.7315846,28.6122674 C60.1363215,28.3352274 59.6528128,28.0870458 59.2821988,27.8665681 C58.9115847,27.6460905 58.5090409,27.3494269 58.0734269,26.9742686 C57.6389533,26.5991103 57.3128129,26.1500746 57.0950059,25.628316 C56.8783393,25.1065574 56.7688656,24.5120758 56.7688656,23.8425625 C56.7688656,22.4400477 57.2797427,21.3157271 58.3037778,20.4672922 C59.3266724,19.6200116 60.6836899,19.195217 62.3748301,19.195217 C63.9051809,19.195217 65.2268475,19.4641766 66.3375491,20.0020959 L66.3375491,22.9872016 C65.1299177,22.2530457 63.8413212,21.8859677 62.4717599,21.8859677 C61.714567,21.8859677 61.1227249,22.0568091 60.6962337,22.399646 C60.2686022,22.742483 60.0553566,23.1822839 60.0553566,23.7202032 C60.0553566,24.2581225 60.2845671,24.7036951 60.7441285,25.0534581 C61.2036898,25.4043754 61.8924617,25.7922313 62.8104441,26.2158716 C63.4547423,26.5090723 63.9781633,26.7653343 64.3807072,26.9858119 C64.783251,27.2062895 65.2222861,27.5121878 65.6978124,27.9035068 C66.1721983,28.2948258 66.5268474,28.7634851 66.7606193,29.3094847 C66.9943912,29.8566386 67.110707,30.4799785 67.110707,31.1806588 Z M104.831231,21.8617267 L104.831231,35.8037634 L101.762547,35.8037634 L101.762547,21.8617267 L97.6299154,21.8617267 L97.6299154,19.3175763 L108.962722,19.3175763 L108.962722,21.8617267 L104.831231,21.8617267 Z M92.2178105,32.0129331 C92.0878106,30.6589002 92.0239509,28.7184661 92.0239509,26.1904763 L92.0239509,19.3175763 L95.0926349,19.3175763 L95.0926349,35.8037634 L91.6134246,35.8037634 L87.6507056,28.9551044 C87.0223723,27.8792658 86.4544776,26.8472919 85.9470215,25.860337 C85.4395654,24.8745364 85.0894777,24.1611585 84.8956181,23.7202032 L84.605969,23.0356836 C84.7827233,24.5847988 84.8716707,26.5494739 84.8716707,28.9308634 L84.8716707,35.8037634 L81.8269341,35.8037634 L81.8269341,19.3175763 L85.282197,19.3175763 L89.1970213,26.1904763 C89.8413195,27.3159512 90.4171966,28.3640858 90.9246527,29.3337257 C91.4321088,30.3045199 91.7742141,30.9936568 91.9521088,31.4011365 L92.2178105,32.0129331 Z M69.5510577,19.3175763 L79.1687763,19.3175763 L79.1687763,21.8374857 L72.6208821,21.8374857 L72.6208821,26.3128356 L78.4435132,26.3128356 L78.4435132,28.808504 L72.6208821,28.808504 L72.6208821,33.2850083 L79.2657062,33.2850083 L79.2657062,35.8037634 L69.5510577,35.8037634 L69.5510577,19.3175763 Z M7.84219245,26.3323611 L4.98219264,26.3323611 L4.98219264,35.9814324 L2.85885945,35.9814324 L2.85885945,26.3323611 L0,26.3323611 L0,24.5720029 L7.84219245,24.5720029 L7.84219245,26.3323611 Z M18.622821,35.9814324 L16.4994878,35.9814324 L16.4994878,31.1909496 L11.8673829,31.1909496 L11.8673829,35.9814324 L9.76001459,35.9814324 L9.76001459,24.5720029 L11.8673829,24.5720029 L11.8673829,29.3463251 L16.4994878,29.3463251 L16.4994878,24.5720029 L18.622821,24.5720029 L18.622821,35.9814324 Z M26.9384007,35.9814324 L20.2171731,35.9814324 L20.2171731,24.5720029 L26.8722603,24.5720029 L26.8722603,26.3162004 L22.3405063,26.3162004 L22.3405063,29.4132764 L26.370506,29.4132764 L26.370506,31.1401589 L22.3405063,31.1401589 L22.3405063,34.2372349 L26.9384007,34.2372349 L26.9384007,35.9814324 Z M112.928299,14.9447507 C112.928299,14.9447507 114.693714,9.37903575 120.76393,4.90271717 C120.76393,4.90271717 116.224538,6.58664495 111.314427,13.3102228 C111.314427,13.3102228 108.909457,5.65064804 114.996796,1.83819394 C117.199711,0.459331819 120.495094,0 125.388082,0 C125.388082,0 127.423189,18.5353389 112.928299,14.9447507 Z M132.014913,35.8037634 L128.728422,35.8037634 L127.568685,32.0614151 L121.40737,32.0614151 L120.247633,35.8037634 L117.056932,35.8037634 L122.567107,19.3175763 L126.505878,19.3175763 L132.014913,35.8037634 Z M144,35.8037634 L134.600088,35.8037634 L134.600088,19.3175763 L137.644825,19.3175763 L137.644825,33.0645306 L144,33.0645306 L144,35.8037634 Z M122.204475,29.54266 L126.795527,29.54266 L126.57772,28.808504 C126.030352,27.0469916 125.583335,25.5671364 125.236668,24.3689385 C124.890001,23.1707406 124.676756,22.4158067 124.596931,22.1064454 L124.500001,21.6170081 C124.355177,22.4331217 123.661843,24.8375978 122.422282,28.832745 L122.204475,29.54266 Z" id="Fill-4"></path>
                <path d="M153.4005,29.2805356 C153.795927,28.4743648 154.239284,27.6880505 154.717257,26.9427728 C155.200556,26.1882287 155.670541,25.4469223 156.125881,24.7215009 C156.614506,24.0463826 157.097805,23.3712642 157.582435,22.6882032 C158.06174,22.0130849 158.56501,21.3300239 159.080263,20.6575531 C159.508974,20.075098 159.977628,19.4794053 160.471578,18.8890077 C160.97618,18.2853724 161.569985,17.7849906 162.234355,17.399776 C162.560549,17.2197444 162.961301,17.0900158 163.429954,17.0158851 C163.495193,17.005295 163.556438,17 163.616351,17 C163.905265,17 164.295366,17.1270811 164.504396,17.7293926 C164.626885,18.0748944 164.633542,18.4177486 164.525699,18.7473652 C164.423181,19.0624204 164.267407,19.3801232 164.063702,19.6938547 C163.861329,20.0022911 163.642979,20.2988137 163.413978,20.5754799 C163.191633,20.8455272 163.0079,21.085128 162.864108,21.2876636 C161.725759,22.9423655 160.43563,24.5096991 159.028338,25.9446566 C157.630366,27.3716715 156.104578,28.7113182 154.493582,29.9252075 C154.351121,30.2680617 154.190022,30.6320961 154.011614,31.0106919 C153.830543,31.3959065 153.666781,31.8089201 153.526983,32.2378188 C153.387186,32.6627463 153.288662,33.0876737 153.232743,33.5006873 C153.183482,33.8620742 153.188807,34.2102235 153.250052,34.5385164 C153.521658,34.490861 153.771961,34.4537956 153.995637,34.4273204 C154.223307,34.3995214 154.438994,34.3770175 154.640036,34.3611323 C154.895665,34.3439234 154.963567,34.3174482 154.978212,34.3095056 L155.008834,34.2989155 C155.855606,34.1255028 156.698384,33.8925207 157.513202,33.6052645 C158.326689,33.319332 159.14417,32.997658 159.940349,32.6495087 C160.174676,32.5886157 160.438293,32.4747722 160.741853,32.3066544 C160.829726,32.2563515 160.920261,32.2192862 161.016122,32.1914872 L165.231342,30.1237717 C165.344511,30.06685 165.606797,29.9503589 166.028852,29.7729749 C166.445581,29.5955909 166.86231,29.4618909 167.267056,29.3731989 C167.681122,29.2831831 168.044595,29.2765643 168.346823,29.3520187 C168.594464,29.4155593 168.860745,29.6326562 168.736924,30.3038033 C168.67568,30.5857645 168.546534,30.8650782 168.35348,31.137773 C168.176404,31.3866402 168.045927,31.6394786 167.964711,31.8896696 C167.790297,32.2762079 167.627866,32.7395245 167.474755,33.2796192 C167.334958,33.7733822 167.366911,34.1652156 167.57461,34.4776233 C168.025956,34.5226312 168.529226,34.463062 169.073769,34.3015631 C169.655592,34.1268265 170.192147,33.95209 170.668789,33.780001 C171.379758,33.524515 174.033243,32.1769258 174.706933,31.887022 C175.740101,31.4422382 176.705368,30.8293366 177.649332,30.2190825 C178.800995,29.4738048 179.924699,28.6755766 180.992483,27.8442544 C181.523713,26.8170154 182.057605,25.7566824 182.580847,24.6897307 C183.105419,23.6188076 183.689905,22.5584746 184.316995,21.540502 C184.540671,21.1116033 184.808283,20.6337254 185.106517,20.1267247 C185.408745,19.6117815 185.757573,19.1219897 186.145011,18.6692633 C186.53378,18.2125656 186.966486,17.8233797 187.429814,17.5136195 C187.902462,17.1972405 188.44168,17.0357416 189.034154,17.0357416 C189.683878,17.0357416 190.088625,17.2237157 190.237742,17.5930452 C190.376208,17.9398707 190.377539,18.3409704 190.240405,18.7897256 C190.111258,19.2173005 189.91288,19.6528181 189.651925,20.0817168 C189.386976,20.5159106 189.173951,20.8269946 188.999537,21.0348251 C188.296557,22.0978056 187.50171,23.1290158 186.648281,24.0887429 C185.794852,25.0458225 184.870859,25.959218 183.902929,26.8024541 C183.594044,27.1161855 183.261193,27.4272695 182.919023,27.718497 C182.586172,28.0004582 182.262641,28.2877145 181.956419,28.5709994 L180.270863,31.8393666 C180.24823,32.6230335 180.400009,33.1670994 180.720877,33.4556794 C181.048402,33.7495545 181.525044,33.8567792 182.141484,33.774706 C182.522265,33.691309 182.905709,33.5814368 183.270513,33.4530319 C183.653957,33.3166845 184.02675,33.1790133 184.376908,33.0400183 C184.617892,32.9314699 184.913464,32.7527621 185.247646,32.5105137 C185.465996,32.3529861 185.685677,32.2404664 185.898701,32.1769258 C186.379338,31.9280587 186.895922,31.6474212 187.413837,31.3482511 C187.959712,31.0345196 188.518901,30.7591772 189.076759,30.5288427 C189.453546,29.8629907 189.992764,29.3109821 190.678436,28.8873784 C191.373428,28.4611272 192.119013,28.1685759 192.899215,28.0216384 C193.315944,27.9607454 193.787261,27.9620691 194.322484,28.0203146 C194.880342,28.0825314 195.318373,28.318161 195.623264,28.7219083 C195.849603,28.9853368 195.906853,29.2778881 195.78969,29.5850008 C195.683178,29.8629907 195.500775,30.127743 195.247809,30.3726389 C195.000168,30.6095922 194.720574,30.8266891 194.415682,31.0199583 C194.116117,31.2092561 193.895104,31.3469273 193.752644,31.4342956 C193.233397,31.7586172 192.654237,32.0061606 192.032472,32.1676595 C191.408044,32.3304822 190.770303,32.3834326 190.132561,32.3238633 L190.123241,32.3238633 C190.243067,32.8599868 190.477394,33.2849142 190.822227,33.5854081 C191.207003,33.9216435 191.665005,34.1691869 192.185583,34.3227432 C192.711487,34.4789471 193.265351,34.5438114 193.83386,34.5146887 C194.406363,34.4868897 194.940255,34.4286442 195.41956,34.3412759 C196.086592,34.1996334 196.757619,34.0182781 197.410006,33.8011812 C198.059731,33.5854081 198.701467,33.3299221 199.319237,33.0439896 C199.604158,32.8983758 199.899729,32.7580571 200.197963,32.6283285 C200.494866,32.4985999 200.771797,32.3609287 201.019438,32.2192862 L201.046066,32.2086961 C201.273736,32.142508 201.516051,32.1756021 201.755704,32.3066544 C201.882187,32.3741663 201.959408,32.4668296 201.988699,32.5806731 C202.021984,32.719668 201.982042,32.8732244 201.864879,33.0519322 C201.709105,33.3060944 201.486761,33.4848022 201.203172,33.5814368 C200.948874,33.6674813 200.722536,33.7548495 200.529482,33.8395703 L198.395244,34.7979736 C197.083813,35.3208594 195.77105,35.7629958 194.490241,36.1111451 C194.060198,36.1985133 193.630155,36.2421974 193.202775,36.2421974 C193.043007,36.2421974 192.880575,36.2369024 192.719476,36.2249885 C192.124339,36.1799807 191.56515,36.044957 191.056554,35.822565 C190.545296,35.5988493 190.079305,35.2745278 189.673227,34.8588667 C189.260492,34.4392343 188.962258,33.8925207 188.786513,33.2346113 C188.730594,33.0056005 188.680001,32.7686472 188.634733,32.5263989 C188.605442,32.3688712 188.598785,32.2153149 188.612099,32.0683774 C188.377773,32.1848684 188.14744,32.3159208 187.923764,32.4575633 L187.774647,32.5515503 C187.536326,32.7024591 187.32197,32.8374828 187.134243,32.9592689 C187.035719,33.0003055 186.925213,33.0611985 186.78009,33.1551856 C186.71352,33.2425538 186.62831,33.3100657 186.521798,33.3590449 L184.515374,34.3174482 C183.916243,34.5504302 183.251873,34.779441 182.534247,34.9991854 C181.804639,35.2229011 181.091007,35.245405 180.417318,35.0653735 C179.902065,34.8721043 179.474685,34.5213075 179.136509,34.0182781 C178.594628,35.0878774 178.030113,36.1455629 177.45761,37.1648592 C176.841171,38.2609338 176.200766,39.3543608 175.555036,40.4146938 C175.471158,40.55766 175.310058,40.8144697 175.062417,41.2023319 C174.816108,41.5835752 174.555153,41.939667 174.283547,42.2613411 C174.001289,42.594929 173.704387,42.8265872 173.40349,42.9496971 C173.322274,42.9827911 173.24239,43 173.165169,43 C172.914865,43 172.699178,42.8318823 172.523433,42.5009419 C172.400944,42.2798737 172.338368,42.0098264 172.338368,41.7000662 C172.338368,41.4048674 172.367659,41.0964309 172.424909,40.7840232 C172.483491,40.474263 172.556718,40.1697979 172.641928,39.8772466 C172.727137,39.5873428 172.799033,39.3411232 172.854952,39.1385876 C173.058657,38.515096 173.378193,37.8187974 173.806905,37.0616058 C174.234285,36.305738 174.748206,35.5511939 175.334023,34.8218013 C175.918509,34.0950563 176.554919,33.408024 177.225946,32.7818848 C177.887653,32.1636882 178.568,31.6725727 179.245684,31.3204521 L179.634453,30.5301665 C179.687709,30.4202943 179.742297,30.3104221 179.799547,30.2005499 L178.42554,31.1682195 C176.882444,32.2550277 175.236831,32.9897154 173.560595,33.8157426 C172.317065,34.4273204 170.986994,34.9965379 169.715505,35.6028206 C169.064449,35.9125808 168.385434,36.128354 167.697099,36.244845 C167.035392,36.3401558 166.590704,36.1879232 166.336406,35.7987373 C166.095422,35.4307316 165.972933,34.9607963 165.972933,34.3995214 C165.972933,33.8541317 166.054149,33.2571152 166.212585,32.6243572 C166.341731,32.1041189 166.481529,31.6090321 166.626652,31.1470394 C166.060806,31.3694313 165.49496,31.5785856 164.939765,31.7718548 C164.321994,31.9876279 163.708218,32.2417901 163.115743,32.5290464 C162.607148,32.7607046 162.093226,33.0228094 161.585962,33.3100657 L161.558003,33.3219795 L161.506078,33.3312459 C161.370275,33.4212616 161.253112,33.4874497 161.147931,33.5337814 L156.187125,35.4108752 C155.711815,35.5816404 155.240498,35.7629958 154.781164,35.9536174 C154.317836,36.1468866 153.830543,36.2594063 153.332599,36.2898529 C153.235406,36.3030905 153.13422,36.311033 153.038359,36.311033 C152.717491,36.311033 152.444553,36.2302836 152.227535,36.0701084 C151.951934,35.8662492 151.756218,35.5962018 151.649706,35.267909 C151.544525,34.9488824 151.505915,34.5941144 151.536537,34.2155186 C151.565828,33.8475129 151.623078,33.4953923 151.710951,33.1684232 C151.874713,32.5952345 152.078418,32.0180744 152.319401,31.4435619 C151.250285,32.1411843 150.129244,32.7845324 148.978913,33.3577211 L148.949622,33.3669874 C148.619434,33.4344993 148.337177,33.3233033 148.122821,33.0373708 C148.01764,32.8970521 147.980361,32.7593809 148.009652,32.625681 C148.046931,32.4668296 148.173414,32.3331297 148.399753,32.2166387 C149.278478,31.8128914 150.135901,31.360165 150.956045,30.8690494 C151.764207,30.3872002 152.587013,29.8524006 153.4005,29.2805356 Z M176.010376,37.1860394 C176.598856,36.2527875 177.167364,35.3023268 177.702588,34.3545135 C176.846496,35.0388982 176.058306,35.8688967 175.356657,36.8273 C174.627049,37.8254162 174.171709,38.8632453 173.999958,39.9182832 C174.718915,39.0790184 175.393936,38.1616516 176.010376,37.1860394 Z M190.874152,30.3448399 C190.683762,30.5500229 190.534644,30.7591772 190.426801,30.9709791 C191.020606,30.9193524 191.602429,30.7525584 192.161618,30.4732447 C192.72347,30.1926073 193.229403,29.8404867 193.670097,29.4208543 C193.46373,29.3639326 193.258694,29.3348098 193.058983,29.3348098 C192.955134,29.3348098 192.849953,29.3427524 192.746104,29.3586375 C192.375974,29.4142355 192.029809,29.528079 191.71693,29.6935492 C191.40405,29.8616669 191.120462,30.0800876 190.874152,30.3448399 Z M183.78044,25.0895066 C183.689905,25.2563006 183.596707,25.4257421 183.503508,25.5951835 C183.901598,25.2165878 184.29303,24.8287256 184.676474,24.438216 C185.239657,23.8637035 185.782869,23.2362405 186.290134,22.5756835 C186.941189,21.823787 187.48307,21.0824805 187.903793,20.3663255 C188.044922,20.16379 188.184719,19.9135991 188.325848,19.6131052 C188.427034,19.3973321 188.497599,19.1828827 188.538872,18.9750522 C188.313865,19.0822769 188.099509,19.2292144 187.898468,19.4118935 C187.63485,19.6528181 187.384546,19.8937427 187.156877,20.1254009 C186.624316,20.6972659 186.131697,21.3088437 185.696328,21.940278 C185.259628,22.573036 184.837574,23.2296217 184.440816,23.8954738 C184.214477,24.2978973 183.994796,24.6976732 183.78044,25.0895066 Z M156.460063,26.447686 C156.301626,26.7005244 156.144521,26.9586579 155.991409,27.2194389 C156.07795,27.1426608 156.165823,27.0645588 156.255027,26.9838094 L157.044549,26.2650069 C158.370625,24.9981671 159.602173,23.610865 160.703242,22.1414897 C161.213169,21.5338832 161.696469,20.8349371 162.147814,20.0618604 C162.197076,19.9294842 162.284948,19.7415101 162.40078,19.5217657 C162.458031,19.4118935 162.511287,19.2993738 162.560549,19.1881778 C162.282286,19.3615906 162.014674,19.5747162 161.760376,19.8222596 C161.404891,20.1704088 161.114646,20.4603126 160.886976,20.6932946 C160.238583,21.3538516 159.624806,22.062064 159.060292,22.7954279 C158.501103,23.522173 157.925937,24.2912784 157.353434,25.0815641 C157.04588,25.536938 156.744983,25.997607 156.460063,26.447686 Z M170.082972,20.6932946 C170.592899,20.0499465 171.740568,19.6528181 172.510119,19.6528181 C172.977441,19.6528181 173.287658,19.8010794 173.382187,20.069803 C173.537961,20.5132631 173.079959,21.1897052 172.020163,22.0805967 C171.65669,22.3863856 171.285229,22.5531796 170.972349,22.5531796 C170.797935,22.5531796 170.64083,22.5028766 170.50769,22.4049183 C170.134897,22.1282521 169.913884,21.8330533 169.851308,21.5285882 C169.792726,21.246627 169.872611,20.9580469 170.082972,20.6932946 Z" id="Combined-Shape"></path>
            </g>
        </g>
    </g>
</svg>