<?xml version="1.0" encoding="utf-8"?>
<!-- Generator: Adobe Illustrator 22.1.0, SVG Export Plug-In . SVG Version: 6.00 Build 0)  -->
<svg version="1.1" id="Layer_1" xmlns="http://www.w3.org/2000/svg" xmlns:xlink="http://www.w3.org/1999/xlink" x="0px" y="0px"
	 viewBox="0 0 24 24" style="enable-background:new 0 0 24 24;" xml:space="preserve">
<style type="text/css">
	.st0{fill:#D83145;}
	.st1{fill:#FFFFFF;}
</style>
<title>Icon/Aromatic</title>
<desc>Created with Sketch.</desc>
<g id="Icon_x2F_Aromatic">
	<circle id="Oval-3" class="st0" cx="12" cy="12" r="12"/>
	<path id="a" class="st1" d="M14.4,15.9c0.3-0.1,0.5-0.3,0.7-0.6c0.2-0.3,0.3-0.6,0.2-0.9c-0.1-0.5-0.3-0.9-0.7-1.2
		c-0.4-0.3-0.7-0.5-1.3-0.5c0,0-0.1,0-0.1,0v0c-0.2,0-0.4-0.2-0.4-0.4c0-0.1,0.1-0.2,0.2-0.3l0,0c0.4-0.2,1.2-0.2,2.1,0.1
		c0.9,0.4,1.4,1,1.5,1.9c0.2,1.2-0.2,2.1-1.3,2.9c-0.3,0.2-0.8,0.3-1.4,0.4c-0.4,0.1-1,0-1.9-0.1c-0.6-0.1-0.8-0.1-1,0
		c-0.5,0.1-0.9,0.1-1.5,0.1c-0.5,0-1-0.2-1.4-0.4c-0.9-0.4-1.3-1.1-1.5-2.1c-0.1-0.9,0.1-1.8,0.6-2.5c0.7-0.9,1.3-2.2,2.1-4.1
		c0.2-0.5,0.6-1.3,1-2.3c0.1-0.3,0.3-0.5,0.6-0.4c0.3,0.1,0.5,0.2,0.6,0.5c0,0.1,0,0.2,0,0.3c-0.8,2.2-1.6,3.9-2.2,5.1
		c-0.1,0.3-0.4,0.7-0.7,1.2c-0.4,0.6-0.6,1-0.7,1.2c-0.1,0.4-0.1,0.8,0,1.3c0.1,0.3,0.3,0.5,0.6,0.7c0.4,0.2,0.9,0.3,1.7,0.3
		c0.1,0,0.2,0,0.4,0c0-0.2,0.1-0.4,0.2-0.6s0.2-0.4,0.5-0.6s0.8-0.4,1.5-0.3c0.3,0,0.6,0.1,1,0.3c0.4,0.2,0.5,0.5,0.6,0.6
		S14.3,15.8,14.4,15.9z"/>
</g>
</svg>
