<?xml version="1.0" encoding="UTF-8"?>
<svg width="24px" height="24px" viewBox="0 0 24 24" version="1.1" xmlns="http://www.w3.org/2000/svg" xmlns:xlink="http://www.w3.org/1999/xlink">
    <!-- Generator: Sketch 52 (66869) - http://www.bohemiancoding.com/sketch -->
    <title>Icon/Topical</title>
    <desc>Created with Sketch.</desc>
    <g id="Icon/Topical" stroke="none" stroke-width="1" fill="none" fill-rule="evenodd">
        <circle id="Oval-3" fill="#E2D233" cx="12" cy="12" r="12"></circle>
        <path d="M6.14502678,12.7967936 C5.94381716,13.2743192 6.01009024,13.6262734 6.34384604,13.8526562 C6.97703106,14.2821386 7.40881692,13.6556121 7.40881692,13.6556121 L9.29917342,11.0840749 C9.34641557,11.0198093 9.43681049,11.006009 9.50107613,11.0532512 C9.51437013,11.0630237 9.52589122,11.075002 9.53513922,11.0886661 L9.53513922,11.0886661 C9.60413281,11.1906054 9.60256912,11.324671 9.53121665,11.4249733 L6.80118074,15.2626681 C6.80118074,15.2626681 6.36791974,15.8887377 7,16.3181303 C7.63170989,16.7479234 8.06497089,16.1214533 8.06497089,16.1214533 L10.6371971,12.5129727 C10.6957074,12.4308907 10.80968,12.4117822 10.891762,12.4702925 C10.8940606,12.471931 10.8963209,12.4736226 10.898541,12.4753659 L10.898541,12.4753659 C10.9830175,12.5417007 11.001243,12.6623396 10.9401323,12.7506689 L8.00453396,16.993782 C8.00453396,16.993782 7.57127296,17.6198516 8.20298286,18.0492442 C8.83469275,18.4790373 9.26795374,17.8525672 9.26795374,17.8525672 L12.2037085,13.6101773 C12.2654337,13.5209796 12.3850325,13.4936409 12.4793814,13.5471623 L12.4793814,13.5471623 C12.5635526,13.5949102 12.5930796,13.7018518 12.5453318,13.786023 C12.5427602,13.7905563 12.5399876,13.7949726 12.5370223,13.7992587 L9.80080956,17.7542621 C9.80080956,17.7542621 9.36754856,18.3803317 9.99962881,18.8097243 C10.6313387,19.2395173 11.0645997,18.6130473 11.0645997,18.6130473 L14.0733529,14.2643627 L14.3143266,13.9162237 L14.530755,13.6029887 C12.635255,12.3147775 12.7887294,10.1812831 13.5378035,9.09855138 C13.5378035,9.09855138 13.5378035,9.09855138 13.5378035,9.09855138 L13.5378035,9.09855138 C13.6062479,8.99962001 13.7419328,8.97490543 13.8408642,9.04334984 C13.9279204,9.10357858 13.9590703,9.21767737 13.914696,9.31378775 C13.1156908,11.044341 13.4986639,12.4412958 15.0636108,13.5046502 L14.6846139,16.3181303 C14.6846139,16.3181303 14.4758284,17.0489787 15.2128906,17.2559 C15.9499528,17.4628213 16.1587383,16.73234 16.1587383,16.73234 L16.8042528,14.832508 C17.0405273,14.023672 17.1514992,13.2875179 17.5119665,12.5779256 C18.5298335,10.5732815 17.9218607,8.04571915 16.0022196,6.74119054 C13.908641,5.31856895 10.960624,6.0635676 9.64986853,7.95778408 C9.59915106,8.0310776 8.43087047,9.64408076 6.14502678,12.7967936 Z" id="Shape" fill="#FFFFFF" fill-rule="nonzero" transform="translate(12.015755, 12.480184) scale(-1, 1) rotate(-180.000000) translate(-12.015755, -12.480184) "></path>
    </g>
</svg>