<?xml version="1.0" encoding="UTF-8"?>
<svg width="24px" height="24px" viewBox="0 0 24 24" version="1.1" xmlns="http://www.w3.org/2000/svg" xmlns:xlink="http://www.w3.org/1999/xlink">
    <!-- Generator: Sketch 52 (66869) - http://www.bohemiancoding.com/sketch -->
    <title>Icon/Aromatic</title>
    <desc>Created with Sketch.</desc>
    <g id="Icon/Aromatic" stroke="none" stroke-width="1" fill="none" fill-rule="evenodd">
        <circle id="Oval-3" stroke="#D83145" fill="#D83145" cx="12" cy="12" r="12"></circle>
        <path d="M14.3801566,15.9255334 C14.6552399,15.8236507 14.8870197,15.6173413 15.0755027,15.3065989 C15.2639858,14.9958566 15.3429437,14.687666 15.3123789,14.3820178 C15.241061,13.8929807 15.0169223,13.4930969 14.6399562,13.1823546 C14.2629901,12.8716123 13.9064042,12.6703964 13.3233948,12.7165222 C13.2876555,12.7165222 13.2482774,12.7161446 13.2052605,12.7153893 L13.20526,12.7154183 C12.9903579,12.7116452 12.819204,12.534374 12.822977,12.3194718 C12.8252469,12.1901854 12.891583,12.0704692 13,12 C13,12 13,12 13,12 C13.3556824,11.7688125 14.2451583,11.7610957 15.1060674,12.143156 C15.9669765,12.5252162 16.4687414,13.1645207 16.6113772,14.0610888 C16.8457075,15.2429284 16.4127124,16.2107999 15.3123789,16.9647321 C14.9659776,17.1684975 14.4973241,17.3060372 13.9064042,17.3773551 C13.4988733,17.448673 12.8621158,17.4130146 11.9961126,17.2703787 C11.4306662,17.2092491 11.2167146,17.2092491 11.0027609,17.2703787 C10.5337524,17.3773551 10.0772095,17.3773551 9.45924526,17.3315081 C8.93964333,17.290755 8.4709898,17.1684975 8.0532706,16.9647321 C7.18726739,16.5470129 6.70333168,15.8542207 6.60144895,14.8863348 C6.49956621,13.9592019 6.70842268,13.1135879 7.22802461,12.3494675 C7.88007408,11.4936525 8.57286626,10.1284444 9.30642193,8.25380215 C9.54075221,7.74438849 9.86677205,6.97009135 10.2844913,5.9308875 C10.386374,5.58448622 10.5952304,5.44694659 10.9110669,5.5182645 C11.2574682,5.57939414 11.4459484,5.75259219 11.4765132,6.03786383 C11.5070781,6.09899347 11.4917959,6.20087467 11.4306662,6.3435105 C10.5952278,8.55436576 9.86677725,10.26597 9.24529259,11.4783745 C9.11284504,11.7840227 8.87342422,12.1813593 8.52702293,12.6703964 C8.13986855,13.251128 7.91572991,13.6637469 7.85460027,13.9082654 C7.74252927,14.2852315 7.75781145,14.7182267 7.90044727,15.2072638 C8.00233,15.4823471 8.21118647,15.7064858 8.52702293,15.8796864 C8.93455385,16.0834519 9.45924526,16.1646423 10.1882324,16.1919403 C10.3145952,16.1966721 10.4160919,16.1912993 10.5865021,16.1646423 C10.6261597,16.0132751 10.6886139,15.7828674 10.7647095,15.6123505 C10.8408051,15.4418335 10.9561872,15.2505341 11.2154846,15.0308533 C11.4747821,14.8111725 12.0317679,14.6723818 12.7143822,14.7335114 C12.9894656,14.7335114 13.3533363,14.8576526 13.6997375,15.0308533 C14.0868919,15.2040539 14.2360229,15.565913 14.2762756,15.6619415 C14.3165283,15.7579701 14.3397522,15.8236507 14.3801566,15.9255334 Z" id="a" fill="#FFFFFF"></path>
    </g>
</svg>