<?xml version="1.0" encoding="UTF-8"?>
<svg width="24px" height="24px" viewBox="0 0 24 24" version="1.1" xmlns="http://www.w3.org/2000/svg" xmlns:xlink="http://www.w3.org/1999/xlink">
    <!-- Generator: Sketch 52 (66869) - http://www.bohemiancoding.com/sketch -->
    <title>Icon/Back</title>
    <desc>Created with Sketch.</desc>
    <defs>
        <path d="M4.04852814,12.2 L10.0242641,18.1757359 C10.2585786,18.4100505 10.2585786,18.7899495 10.0242641,19.0242641 C9.78994949,19.2585786 9.41005051,19.2585786 9.17573593,19.0242641 L2.17573593,12.0242641 C1.94142136,11.7899495 1.94142136,11.4100505 2.17573593,11.1757359 L9.17573593,4.17573593 C9.41005051,3.94142136 9.78994949,3.94142136 10.0242641,4.17573593 C10.2585786,4.41005051 10.2585786,4.78994949 10.0242641,5.02426407 L4.04852814,11 L20.5,11 C20.8313708,11 21.1,11.2686292 21.1,11.6 C21.1,11.9313708 20.8313708,12.2 20.5,12.2 L4.04852814,12.2 Z" id="path-1"></path>
    </defs>
    <g id="Icon/Back" stroke="none" stroke-width="1" fill="none" fill-rule="evenodd">
        <mask id="mask-2" fill="white">
            <use xlink:href="#path-1"></use>
        </mask>
        <use id="Combined-Shape" fill="#979797" fill-rule="nonzero" xlink:href="#path-1"></use>
        <g id="Colour/Primary-Grey" mask="url(#mask-2)" fill="#6C798B">
            <rect x="0" y="0" width="24" height="24"></rect>
        </g>
    </g>
</svg>