<?xml version="1.0" encoding="UTF-8"?>
<svg width="24px" height="24px" viewBox="0 0 24 24" version="1.1" xmlns="http://www.w3.org/2000/svg" xmlns:xlink="http://www.w3.org/1999/xlink">
    <!-- Generator: Sketch 52 (66869) - http://www.bohemiancoding.com/sketch -->
    <title>Icon/Blend</title>
    <desc>Created with Sketch.</desc>
    <defs>
        <path d="M11.8472332,23.4357661 C10.8652299,23.7675377 9.8581488,23.9384774 8.90800494,23.9384774 C4.21610433,23.9384774 -1.81188398e-13,20.968895 -1.81188398e-13,15.7616134 C-1.80931387e-13,10.1652214 4.21610433,7.57318333 8.90800494,0.181818182 C9.96358322,1.88293406 11.0052039,3.32350152 11.9833792,4.60302655 C12.9640238,3.31887927 14.0147612,1.87649513 15.0905105,0.181818182 C19.6770085,7.57318333 24,10.0456264 24,15.7616134 C24,20.968895 19.050696,23.9384774 15.0905105,23.9384774 C13.9648106,23.9384774 12.8664992,23.7675377 11.8472332,23.4357661 Z M12.7303683,5.56727135 C15.6370741,9.27864789 17.8174944,11.7021451 17.8174944,15.7616134 C17.8174944,18.9427634 15.9703948,21.2887954 13.6301074,22.6328459 C14.10003,22.7025947 14.5878695,22.7384774 15.0905105,22.7384774 C19.0669898,22.7384774 22.8,19.7360661 22.8,15.7616134 C22.8,13.8944022 22.2983431,12.3647753 21.192121,10.6123855 C20.7982688,9.9884758 17.2266635,5.42200557 15.0820864,2.33571704 C14.3974528,3.30918419 13.5636617,4.44539835 12.7303683,5.56727135 Z M2.68739876,10.8106842 C1.66726093,12.4931635 1.2,13.9815618 1.2,15.7616134 C1.2,19.9531393 4.47952789,22.7384774 8.90800494,22.7384774 C12.8844842,22.7384774 16.6174944,19.7360661 16.6174944,15.7616134 C16.6174944,13.8944022 16.1158375,12.3647753 15.0096155,10.6123855 C14.6157632,9.9884758 11.044158,5.42200557 8.89958077,2.33571704 C6.77282025,5.35971664 3.2067101,9.95420142 2.68739876,10.8106842 Z" id="path-1"></path>
    </defs>
    <g id="Icon/Blend" stroke="none" stroke-width="1" fill="none" fill-rule="evenodd">
        <mask id="mask-2" fill="white">
            <use xlink:href="#path-1"></use>
        </mask>
        <use id="Combined-Shape" fill="#979797" fill-rule="nonzero" xlink:href="#path-1"></use>
        <g id="Colour/Primary-Grey" mask="url(#mask-2)" fill="#6C798B">
            <rect x="0" y="0" width="24" height="24"></rect>
        </g>
    </g>
</svg>