<?xml version="1.0" encoding="UTF-8"?>
<svg width="24px" height="24px" viewBox="0 0 24 24" version="1.1" xmlns="http://www.w3.org/2000/svg" xmlns:xlink="http://www.w3.org/1999/xlink">
    <!-- Generator: Sketch 52 (66869) - http://www.bohemiancoding.com/sketch -->
    <title>Icon/Body-Systems-Fill</title>
    <desc>Created with Sketch.</desc>
    <g id="Icon/Body-Systems-Fill" stroke="none" stroke-width="1" fill="none" fill-rule="evenodd">
        <path d="M20.2842553,5.68906464 C17.9966348,3.43697845 14.2876059,3.43697845 11.9999854,5.68906464 C9.71232575,3.43697845 6.00333594,3.43697845 3.7157154,5.68906464 C1.42809487,7.94115083 1.42809487,11.5924654 3.7157154,13.8445131 L11.9999854,22 L20.2842553,13.8445131 C22.5719149,11.5924654 22.5719149,7.94111238 20.2842553,5.68906464 Z" id="Shape-Copy" fill-opacity="0.1" fill="#3751FF" fill-rule="nonzero"></path>
        <path d="M21.5357543,3.45128712 C24.2880843,6.18814036 24.2880843,10.626946 21.5357516,13.3638019 L11.9999839,22.846155 L2.46421714,13.3638029 C-0.288071776,10.6269438 -0.288071776,6.18818929 2.46421351,3.45128712 C5.07770469,0.852403308 9.23294037,0.723017241 11.999981,3.06312582 C14.7669891,0.723016751 18.9222636,0.852403852 21.5357543,3.45128712 Z M20.6896147,12.5128893 C22.9701284,10.2451992 22.9701284,6.56988715 20.6896147,4.30219709 C18.4072644,2.03260338 14.7054003,2.03260338 12.4230573,4.30218986 L11.9999875,4.72289506 L11.5769141,4.30219348 C9.29452788,2.03260278 5.59270397,2.03260278 3.31036038,4.30218986 C1.02988048,6.56992367 1.02988048,10.2452014 3.31035775,12.5128939 L11.9999839,21.153845 L20.6896147,12.5128893 Z M14.6550413,9.68509846 C14.7396424,9.51544473 14.9129149,9.40822897 15.1024927,9.40822897 L18.2541504,9.40822897 C18.5302928,9.40822897 18.7541504,9.6320866 18.7541504,9.90822897 C18.7541504,10.1843713 18.5302928,10.408229 18.2541504,10.408229 L15.4118777,10.408229 L13.7292227,13.7825159 C13.5451332,14.151677 13.0184043,14.1516747 12.8343179,13.7825121 L10.5954677,9.29277158 L10.0310188,10.9416304 C9.9617967,11.1438409 9.7716995,11.2796927 9.55796893,11.2796927 L6,11.2796927 C5.72385763,11.2796927 5.5,11.0558351 5.5,10.7796927 C5.5,10.5035503 5.72385763,10.2796927 6,10.2796927 L9.20064692,10.2796927 L10.036483,7.83806226 C10.1802082,7.41821436 10.7589536,7.3797432 10.9569862,7.7768733 L13.281776,12.4389553 L14.6550413,9.68509846 Z" id="Combined-Shape" fill="#3751FF" fill-rule="nonzero"></path>
    </g>
</svg>