<?xml version="1.0" encoding="UTF-8"?>
<svg width="24px" height="24px" viewBox="0 0 24 24" version="1.1" xmlns="http://www.w3.org/2000/svg" xmlns:xlink="http://www.w3.org/1999/xlink">
    <!-- Generator: Sketch 52 (66869) - http://www.bohemiancoding.com/sketch -->
    <title>Icon/Clock</title>
    <desc>Created with Sketch.</desc>
    <defs>
        <path d="M23.3258065,12 C23.3258065,18.2457043 18.2651621,23.3258065 12,23.3258065 C5.75429565,23.3258065 0.674193548,18.2651621 0.674193548,12 C0.674193548,5.75429565 5.73483787,0.674193548 12,0.674193548 C18.2457043,0.674193548 23.3258065,5.73483787 23.3258065,12 Z M22.1258065,12 C22.1258065,6.39861263 17.5839913,1.87419355 12,1.87419355 C6.39861263,1.87419355 1.87419355,6.41600867 1.87419355,12 C1.87419355,17.6013874 6.41600867,22.1258065 12,22.1258065 C17.6013874,22.1258065 22.1258065,17.5839913 22.1258065,12 Z M16.3538434,14.5154436 C16.6214565,14.7108659 16.6799787,15.0862303 16.4845564,15.3538434 C16.2891341,15.6214565 15.9137697,15.6799787 15.6461566,15.4845564 L11.4,12.3838347 L11.4,6.06542969 C11.4,5.73405884 11.6686292,5.46542969 12,5.46542969 C12.3313708,5.46542969 12.6,5.73405884 12.6,6.06542969 L12.6,11.7742298 L16.3538434,14.5154436 Z" id="path-1"></path>
    </defs>
    <g id="Icon/Clock" stroke="none" stroke-width="1" fill="none" fill-rule="evenodd">
        <mask id="mask-2" fill="white">
            <use xlink:href="#path-1"></use>
        </mask>
        <use id="Combined-Shape" fill="#979797" fill-rule="nonzero" xlink:href="#path-1"></use>
        <g id="Colour/Primary-Grey" mask="url(#mask-2)" fill="#6C798B">
            <rect x="0" y="0" width="24" height="24"></rect>
        </g>
    </g>
</svg>