<?xml version="1.0" encoding="UTF-8"?>
<svg width="24px" height="24px" viewBox="0 0 24 24" version="1.1" xmlns="http://www.w3.org/2000/svg" xmlns:xlink="http://www.w3.org/1999/xlink">
    <!-- Generator: Sketch 52 (66869) - http://www.bohemiancoding.com/sketch -->
    <title>Icon/Communication</title>
    <desc>Created with Sketch.</desc>
    <defs>
        <path d="M12,18.2752763 C10.8689165,18.9627925 9.54101407,19.3587234 8.1206383,19.3587234 C6.973296,19.3587234 5.8621477,19.0987953 4.85221831,18.6067306 L0.0800096285,19.8625177 L1.55017232,15.4523934 C0.957610585,14.365203 0.641574468,13.1447028 0.64157447,11.8794087 C0.64125062,7.74869736 3.98984783,4.4 8.1206383,4.4 C9.54101407,4.4 10.8689165,4.79593091 12,5.48344713 C13.1310835,4.79593091 14.4589859,4.4 15.8793617,4.4 C20.0101522,4.4 23.3587494,7.74869736 23.3584255,11.8793617 C23.3584255,13.1446995 23.0423894,14.3652028 22.4498277,15.4523934 L23.9199904,19.8625177 L19.1477817,18.6067306 C18.1378523,19.0987953 17.026704,19.3587234 15.8793617,19.3587234 C14.4589859,19.3587234 13.1310835,18.9627925 12,18.2752763 Z M13.0629759,17.4932287 C13.9100178,17.9190088 14.866696,18.1587234 15.8793617,18.1587234 C16.9111647,18.1587234 17.9060287,17.9090228 18.8002251,17.4376894 L19.0068297,17.3287876 L22.0800096,18.1374823 L21.1400096,15.3177148 L21.2801897,15.0818019 C21.8522209,14.1191152 22.1584255,13.0221366 22.1584255,11.8793147 C22.1586974,8.41139475 19.3473868,5.6 15.8793617,5.6 C14.866696,5.6 13.9100178,5.83971457 13.0629759,6.26549473 C14.6185874,7.6360898 15.6,9.64311674 15.6,11.8793617 C15.6,14.1156067 14.6185874,16.1226336 13.0629759,17.4932287 Z M4.99317034,17.3287876 L5.19977492,17.4376894 C6.09397129,17.9090228 7.08883531,18.1587234 8.1206383,18.1587234 C11.5886292,18.1587234 14.4,15.3473526 14.4,11.8793617 C14.4,8.41137085 11.5886292,5.6 8.1206383,5.6 C4.65261324,5.6 1.84130258,8.41139475 1.84157447,11.8793617 C1.84157447,13.0221366 2.14777905,14.1191152 2.71981027,15.0818019 L2.85999038,15.3177148 L1.91999037,18.1374823 L4.99317034,17.3287876 Z" id="path-1"></path>
    </defs>
    <g id="Icon/Communication" stroke="none" stroke-width="1" fill="none" fill-rule="evenodd">
        <mask id="mask-2" fill="white">
            <use xlink:href="#path-1"></use>
        </mask>
        <use id="Combined-Shape" fill="#ACBACC" fill-rule="nonzero" xlink:href="#path-1"></use>
        <g id="Colour/Primary-Grey" mask="url(#mask-2)" fill="#6C798B">
            <rect x="0" y="0" width="24" height="24"></rect>
        </g>
    </g>
</svg>