<?xml version="1.0" encoding="UTF-8"?>
<svg width="24px" height="24px" viewBox="0 0 24 24" version="1.1" xmlns="http://www.w3.org/2000/svg" xmlns:xlink="http://www.w3.org/1999/xlink">
    <!-- Generator: Sketch 52 (66869) - http://www.bohemiancoding.com/sketch -->
    <title>Icon/Cross-Fill</title>
    <desc>Created with Sketch.</desc>
    <g id="Icon/Cross-Fill" stroke="none" stroke-width="1" fill="none" fill-rule="evenodd">
        <path d="M20.7974854,16.7495439 L16.6022409,16.7495439 L16.6022409,22.449824 C16.6022409,23.029936 16.1318627,23.5002441 15.5518207,23.5002441 L8.80112045,23.5002441 C8.22107843,23.5002441 7.75070028,23.029936 7.75070028,22.449824 L7.75070028,16.7495439 L2.05042017,16.7495439 C1.47037815,16.7495439 1,16.2792357 1,15.6991237 L1,8.94849344 C1,8.3683814 1.47037815,7.89807327 2.05042017,7.89807327 L7.75070028,7.89807327 L7.75070028,2.97436523 L14,2.97436523 L14,10.2192383 L20.7974854,10.2192383 L20.7974854,16.7495439 Z" id="Combined-Shape" fill-opacity="0.1" fill="#3751FF" fill-rule="nonzero"></path>
        <path d="M16.6808105,7.39731445 L22,7.39731445 C22.8836556,7.39731445 23.6,8.11365885 23.6,8.99731445 L23.6,15.0025635 C23.6,15.8862191 22.8836556,16.6025635 22,16.6025635 L16.6808105,16.6025635 L16.6808105,22 C16.6808105,22.8836556 15.9644661,23.6 15.0808105,23.6 L9.02124023,23.6 C8.13758463,23.6 7.42124023,22.8836556 7.42124023,22 L7.42124023,16.6025635 L2,16.6025635 C1.1163444,16.6025635 0.4,15.8862191 0.4,15.0025635 L0.4,8.99731445 C0.4,8.11365885 1.1163444,7.39731445 2,7.39731445 L7.42124023,7.39731445 L7.42124023,2 C7.42124023,1.1163444 8.13758463,0.4 9.02124023,0.4 L15.0808105,0.4 C15.9644661,0.4 16.6808105,1.1163444 16.6808105,2 L16.6808105,7.39731445 Z M15.4808105,2 C15.4808105,1.7790861 15.3017244,1.6 15.0808105,1.6 L9.02124023,1.6 C8.80032633,1.6 8.62124023,1.7790861 8.62124023,2 L8.62124023,8.59731445 L2,8.59731445 C1.7790861,8.59731445 1.6,8.77640055 1.6,8.99731445 L1.6,15.0025635 C1.6,15.2234774 1.7790861,15.4025635 2,15.4025635 L8.62124023,15.4025635 L8.62124023,22 C8.62124023,22.2209139 8.80032633,22.4 9.02124023,22.4 L15.0808105,22.4 C15.3017244,22.4 15.4808105,22.2209139 15.4808105,22 L15.4808105,15.4025635 L22,15.4025635 C22.2209139,15.4025635 22.4,15.2234774 22.4,15.0025635 L22.4,8.99731445 C22.4,8.77640055 22.2209139,8.59731445 22,8.59731445 L15.4808105,8.59731445 L15.4808105,2 Z" id="Shape" fill="#3751FF" fill-rule="nonzero"></path>
    </g>
</svg>