<?xml version="1.0" encoding="UTF-8"?>
<svg width="24px" height="24px" viewBox="0 0 24 24" version="1.1" xmlns="http://www.w3.org/2000/svg" xmlns:xlink="http://www.w3.org/1999/xlink">
    <!-- Generator: Sketch 52 (66869) - http://www.bohemiancoding.com/sketch -->
    <title>Icon/Heart-Fill</title>
    <desc>Created with Sketch.</desc>
    <g id="Icon/Heart-Fill" stroke="none" stroke-width="1" fill="none" fill-rule="evenodd">
        <path d="M20.2842553,6.68906464 C17.9966348,4.43697845 14.2876059,4.43697845 11.9999854,6.68906464 C9.71232575,4.43697845 6.00333594,4.43697845 3.7157154,6.68906464 C1.42809487,8.94115083 1.42809487,12.5924654 3.7157154,14.8445131 L11.9999854,23 L20.2842553,14.8445131 C22.5719149,12.5924654 22.5719149,8.94111238 20.2842553,6.68906464 Z" id="Shape-Copy" fill-opacity="0.1" fill="#3751FF" fill-rule="nonzero"></path>
        <path d="M21.5357543,3.45128712 C24.2880843,6.18814036 24.2880843,10.626946 21.5357516,13.3638019 L11.9999839,22.846155 L2.46421714,13.3638029 C-0.288071776,10.6269438 -0.288071776,6.18818929 2.46421351,3.45128712 C5.07770469,0.852403308 9.23294037,0.723017241 11.999981,3.06312582 C14.7669891,0.723016751 18.9222636,0.852403852 21.5357543,3.45128712 Z M20.6896147,12.5128893 C22.9701284,10.2451992 22.9701284,6.56988715 20.6896147,4.30219709 C18.4072644,2.03260338 14.7054003,2.03260338 12.4230573,4.30218986 L11.9999875,4.72289506 L11.5769141,4.30219348 C9.29452788,2.03260278 5.59270397,2.03260278 3.31036038,4.30218986 C1.02988048,6.56992367 1.02988048,10.2452014 3.31035775,12.5128939 L11.9999839,21.153845 L20.6896147,12.5128893 Z" id="Shape-Copy" fill="#3751FF" fill-rule="nonzero"></path>
    </g>
</svg>