<?xml version="1.0" encoding="UTF-8"?>
<svg width="24px" height="24px" viewBox="0 0 24 24" version="1.1" xmlns="http://www.w3.org/2000/svg" xmlns:xlink="http://www.w3.org/1999/xlink">
    <!-- Generator: Sketch 52 (66869) - http://www.bohemiancoding.com/sketch -->
    <title>Icon/Internal</title>
    <desc>Created with Sketch.</desc>
    <g id="Icon/Internal" stroke="none" stroke-width="1" fill="none" fill-rule="evenodd">
        <circle id="Oval-3-Copy" fill="#10B4D5" cx="12" cy="12" r="12"></circle>
        <path d="M16.0604077,10.6467866 L16.4583781,8.05453689 L7.15164928,8.05453689 L8.76165809,17.5453689 L9.77963646,17.5453689 L8.67082567,10.5479556 C8.98474811,10.5715167 9.53403438,11.08359 10.8552266,10.9798512 C12.1764188,10.8761125 12.4014709,10.2922179 13.8059861,10.2135999 C15.0595816,10.1434297 15.6668934,10.542345 16.0604077,10.6467866 Z M17.072772,7 C17.3958599,7 17.6429615,7.28793249 17.5939345,7.60727896 L15.974976,18.1526479 C15.9354755,18.4099409 15.714121,18.5999058 15.4538135,18.5999058 L8.31630174,18.5999058 C8.05912833,18.5999058 7.839472,18.4143735 7.79646003,18.1608224 L6.00756135,7.61545352 C5.95296508,7.29361429 6.20096586,7 6.52740306,7 L17.072772,7 Z" id="Combined-Shape" fill="#FFFFFF" fill-rule="nonzero"></path>
    </g>
</svg>