<?xml version="1.0" encoding="UTF-8"?>
<svg width="24px" height="24px" viewBox="0 0 24 24" version="1.1" xmlns="http://www.w3.org/2000/svg" xmlns:xlink="http://www.w3.org/1999/xlink">
    <!-- Generator: Sketch 52 (66869) - http://www.bohemiancoding.com/sketch -->
    <title>Icon/Mail</title>
    <desc>Created with Sketch.</desc>
    <defs>
        <path d="M21.999986,4.2 L2,4.2 C1.5581722,4.2 1.2,4.5581722 1.2,5 L1.2,19 C1.2,19.4418278 1.5581722,19.8 2,19.8 L21.999986,19.8 C22.4418138,19.8 22.799986,19.4418278 22.799986,19 L22.799986,5 C22.799986,4.5581722 22.4418138,4.2 21.999986,4.2 Z M21.999986,3 C23.1045555,3 23.999986,3.8954305 23.999986,5 L23.999986,19 C23.999986,20.1045695 23.1045555,21 21.999986,21 L2,21 C0.8954305,21 1.3527075e-16,20.1045695 0,19 L0,5 C-1.3527075e-16,3.8954305 0.8954305,3 2,3 L21.999986,3 Z M9.12821263,11.7875044 C9.43139992,12.0345476 9.74531176,12.2902945 10.0699863,12.5547763 L3.41330767,18.5251493 C3.16662173,18.7464019 2.78728264,18.725784 2.5660301,18.4790981 C2.34477756,18.2324121 2.3653954,17.853073 2.61208134,17.6318205 L9.12821263,11.7875044 Z M14.9626921,11.8261137 C19.1564617,15.5753121 21.3226923,17.5116331 21.456002,17.6302666 C21.7035461,17.8505586 21.7256383,18.2298147 21.5053464,18.4773588 C21.2850544,18.7249029 20.9057983,18.7469952 20.6582542,18.5267032 C20.5225086,18.4059018 18.3142662,16.4320229 14.0279681,12.6000986 L14.9626921,11.8261137 Z M20.6753195,5.53786549 C20.9305493,5.32652603 21.3087785,5.36210621 21.5201179,5.61733606 C21.7314574,5.8725659 21.6958772,6.25079505 21.4406473,6.46213451 L12.4724488,13.8881244 C12.2518775,14.0707654 11.9329796,14.0720715 11.7109195,13.8912435 C5.77164492,9.05477246 2.7914295,6.62005594 2.59791859,6.44534317 C2.35196235,6.22327974 2.3325934,5.84387484 2.55465683,5.59791859 C2.77672026,5.35196235 3.15612516,5.3325934 3.40208141,5.55465683 C3.56620794,5.70283969 6.51477522,8.11201272 12.0866123,12.6496229 L20.6753195,5.53786549 Z" id="path-1"></path>
    </defs>
    <g id="Icon/Mail" stroke="none" stroke-width="1" fill="none" fill-rule="evenodd">
        <mask id="mask-2" fill="white">
            <use xlink:href="#path-1"></use>
        </mask>
        <use id="Shape" fill="#979797" fill-rule="nonzero" xlink:href="#path-1"></use>
        <g id="Colour/Primary-Grey" mask="url(#mask-2)" fill="#6C798B">
            <rect x="0" y="0" width="24" height="24"></rect>
        </g>
    </g>
</svg>