<?xml version="1.0" encoding="UTF-8"?>
<svg width="24px" height="24px" viewBox="0 0 24 24" version="1.1" xmlns="http://www.w3.org/2000/svg" xmlns:xlink="http://www.w3.org/1999/xlink">
    <!-- Generator: Sketch 52 (66869) - http://www.bohemiancoding.com/sketch -->
    <title>Icon/Oil-Fill</title>
    <desc>Created with Sketch.</desc>
    <g id="Icon/Oil-Fill" stroke="none" stroke-width="1" fill="none" fill-rule="evenodd">
        <path d="M9.41246404,4 C10.8379509,6.86695145 14.2585897,8.89377027 18,9 C19.4369318,10.9298098 19.8391667,12.9850151 19.8391667,15.4855536 C19.8391667,19.6410835 16.2991562,23 11.9195834,23 C7.54001048,23 4,19.6410835 4,15.4855536 C4,11.3689274 6.94462011,9.63717766 9,5 L9.41246404,4 Z" id="Combined-Shape" fill-opacity="0.1" fill="#3751FF" fill-rule="nonzero"></path>
        <path d="M5.70441538,10.7313653 C4.67272402,12.4328993 4.2,13.9386997 4.2,15.7393799 C4.2,19.981114 7.51902801,22.8 11.9992501,22.8 C16.0227321,22.8 19.8,19.7619928 19.8,15.7393799 C19.8,13.8505531 19.2924773,12.3030407 18.1737537,10.5308469 C17.7748546,9.89894237 14.1559162,5.27212713 11.9907997,2.1545008 C9.84372252,5.20888424 6.23028911,9.86405932 5.70441538,10.7313653 Z M11.9992501,24 C7.25929012,24 3,21 3,15.7393799 C3,10.0856637 7.25929012,7.46707531 11.9992501,0 C16.6327279,7.46707531 21,9.96484375 21,15.7393799 C21,21 16,24 11.9992501,24 Z" id="Shape" fill="#3751FF" fill-rule="nonzero"></path>
    </g>
</svg>