<?xml version="1.0" encoding="UTF-8"?>
<svg width="24px" height="24px" viewBox="0 0 24 24" version="1.1" xmlns="http://www.w3.org/2000/svg" xmlns:xlink="http://www.w3.org/1999/xlink">
    <!-- Generator: Sketch 52 (66869) - http://www.bohemiancoding.com/sketch -->
    <title>Icon/Profile</title>
    <desc>Created with Sketch.</desc>
    <defs>
        <path d="M11.9325739,9.6296875 C13.9952739,9.6296875 15.6651478,7.96581603 15.6651478,5.91484375 C15.6651478,3.86387147 13.9952739,2.2 11.9325739,2.2 C9.86987383,2.2 8.2,3.86387147 8.2,5.91484375 C8.2,7.96581603 9.86987383,9.6296875 11.9325739,9.6296875 Z M11.9325739,10.8296875 C9.20809753,10.8296875 7,8.62952698 7,5.91484375 C7,3.20016052 9.20809753,1 11.9325739,1 C14.6570502,1 16.8651478,3.20016052 16.8651478,5.91484375 C16.8651478,8.62952698 14.6570502,10.8296875 11.9325739,10.8296875 Z M21.6,20.1760383 C21.6,22.5118547 17.4160055,23.7489415 12.0017093,23.7643655 C6.57957033,23.7798119 2.4,22.5625547 2.4,20.2102235 C2.4,15.8661017 6.72509395,12.4 12,12.4 C17.2679749,12.4 21.6,15.8602905 21.6,20.1760383 Z M20.4,20.1760383 C20.4,16.5897835 16.6570144,13.6 12,13.6 C7.3366719,13.6 3.6,16.5945442 3.6,20.2102235 C3.6,21.5036481 7.2881646,22.5777884 11.9982907,22.5643704 C16.701698,22.5509715 20.4,21.45749 20.4,20.1760383 Z" id="path-1"></path>
    </defs>
    <g id="Icon/Profile" stroke="none" stroke-width="1" fill="none" fill-rule="evenodd">
        <mask id="mask-2" fill="white">
            <use xlink:href="#path-1"></use>
        </mask>
        <use id="Combined-Shape" fill="#ACBACC" fill-rule="nonzero" xlink:href="#path-1"></use>
        <g id="Colour/Primary-Grey" mask="url(#mask-2)" fill="#6C798B">
            <rect x="0" y="0" width="24" height="24"></rect>
        </g>
    </g>
</svg>