<?xml version="1.0" encoding="UTF-8"?>
<svg width="24px" height="24px" viewBox="0 0 24 24" version="1.1" xmlns="http://www.w3.org/2000/svg" xmlns:xlink="http://www.w3.org/1999/xlink">
    <!-- Generator: Sketch 52 (66869) - http://www.bohemiancoding.com/sketch -->
    <title>Icon/Recipe-Fill</title>
    <desc>Created with Sketch.</desc>
    <defs>
        <path d="M20.2195801,18.6665081 L20.2195801,1.60214112 L4.99501298,1.65637377 C4.22376606,1.65912109 3.6,2.28511308 3.6,3.05636489 L3.6,18.7920924 C2.89289988,19.236972 2.41844813,20.0177559 2.400526,20.9105629 C2.40029302,20.9049431 2.40011769,14.9535438 2.4,3.05636489 C2.4,1.6240401 3.55842269,0.461483553 4.99073839,0.456381386 L20.8174428,0.400003807 C21.1496465,0.398820437 21.4195801,0.667794175 21.4195801,1 L21.4195801,19.004948 C21.4195801,19.3097768 21.1910125,19.5661597 20.8881828,19.6010132 C20.0027768,19.6010132 19.7799093,19.2895115 20.2195801,18.6665081 Z M20.4101552,23.5260254 L4.96298614,23.5259988 C3.54748798,23.5259988 2.4,22.3785109 2.4,20.9630127 C2.4,19.5475145 3.54748798,18.4000266 4.96298511,18.4000266 L20.4101552,18.4 C20.8888924,18.3999992 21.174825,18.9331342 20.9099743,19.3319367 C20.4744276,19.9877668 20.2672363,20.535227 20.2672363,20.9630127 C20.2672363,21.3907984 20.4744276,21.9382586 20.9099743,22.5940887 C21.174825,22.9928912 20.8888924,23.5260262 20.4101552,23.5260254 Z M19.0672363,20.9630127 C19.0672363,20.5334848 19.1763246,20.0800259 19.3895698,19.6000018 L4.96298614,19.6000266 C4.21022968,19.6000266 3.6,20.2102562 3.6,20.9630127 C3.6,21.7157692 4.21022968,22.3259988 4.96298718,22.3259988 L19.3895698,22.3260236 C19.1763246,21.8459995 19.0672363,21.3925406 19.0672363,20.9630127 Z M7.5,6 C7.22385763,6 7,5.77614237 7,5.5 C7,5.22385763 7.22385763,5 7.5,5 L16.5,5 C16.7761424,5 17,5.22385763 17,5.5 C17,5.77614237 16.7761424,6 16.5,6 L7.5,6 Z M7.5,8.70833333 C7.22385763,8.70833333 7,8.48447571 7,8.20833333 C7,7.93219096 7.22385763,7.70833333 7.5,7.70833333 L13.5,7.70833333 C13.7761424,7.70833333 14,7.93219096 14,8.20833333 C14,8.48447571 13.7761424,8.70833333 13.5,8.70833333 L7.5,8.70833333 Z" id="path-1"></path>
    </defs>
    <g id="Icon/Recipe-Fill" stroke="none" stroke-width="1" fill="none" fill-rule="evenodd">
        <rect id="Path" fill-opacity="0.1" fill="#3751FF" fill-rule="nonzero" x="3" y="3" width="16" height="16" rx="1"></rect>
        <mask id="mask-2" fill="white">
            <use xlink:href="#path-1"></use>
        </mask>
        <use id="Combined-Shape" fill="#3751FF" fill-rule="nonzero" xlink:href="#path-1"></use>
    </g>
</svg>