<?xml version="1.0" encoding="UTF-8"?>
<svg width="24px" height="24px" viewBox="0 0 24 24" version="1.1" xmlns="http://www.w3.org/2000/svg" xmlns:xlink="http://www.w3.org/1999/xlink">
    <!-- Generator: Sketch 52 (66869) - http://www.bohemiancoding.com/sketch -->
    <title>Icon/Remedies-Fill</title>
    <desc>Created with Sketch.</desc>
    <g id="Icon/Remedies-Fill" stroke="none" stroke-width="1" fill="none" fill-rule="evenodd">
        <path d="M7,4.98950808 L7,3.23710218 C7,2.99668064 7.18479467,2.79900071 7.40954495,2.79900071 L15.590455,2.79900071 C15.8152053,2.79900071 16,2.99668064 16,3.23710218 L16,4.98950808 C16,5.22992962 15.8152053,5.42760955 15.590455,5.42760955 L7.40954495,5.42760955 C7.17980022,5.42760955 7,5.22992962 7,4.98950808 Z" id="Path-Copy" fill="#F5F6FA" fill-rule="nonzero"></path>
        <path d="M20,21.2452155 C20,22.2153403 19.1851852,23 18.1777778,23 L4.82222222,23 C3.81481481,23 3,22.2153403 3,21.2452155 L3,9.55378524 C3,8.58366046 3.81481481,7.79900071 4.82222222,7.79900071 L18.1777778,7.79900071 C19.1851852,7.79900071 20,8.58366046 20,9.55378524 L20,21.2452155 Z" id="Path-Copy-3" fill-opacity="0.1" fill="#3751FF" fill-rule="nonzero"></path>
        <path d="M7.2,2.26666667 L7.2,4.93333333 C7.2,4.98720718 7.19691681,4.99815887 7.14498311,5 L16.0747241,5 C16.0024593,4.99907899 16,4.99095192 16,4.93333333 L16,2.26666667 C16,2.20904808 16.0024593,2.20092101 16.0747241,2.2 L7.12527592,2.2 C7.19754066,2.20092101 7.2,2.20904808 7.2,2.26666667 Z M17.1985862,5 L18.6705882,5 C20.0664272,5 21.2,6.11499859 21.2,7.49779728 L21.2,20.1420646 C21.2,21.5248632 20.0664272,22.6398618 18.6705882,22.6398618 L4.52941176,22.6398618 C3.13357281,22.6398618 2,21.5248632 2,20.1420646 L2,7.49779728 C2,6.11499859 3.13357281,5 4.52941176,5 L6.00138768,5 C6.00046477,4.97785617 6,4.95562696 6,4.93333333 L6,2.26666667 C6,1.6073065 6.41453218,1 7.05504994,1 L16.1449501,1 C16.7854678,1 17.2,1.6073065 17.2,2.26666667 L17.2,4.93333333 C17.2,4.95562219 17.1995263,4.97785156 17.1985862,5 Z M20,20.1420646 L20,7.49779728 C20,6.78221849 19.4080826,6.2 18.6705882,6.2 L4.52941176,6.2 C3.79191739,6.2 3.2,6.78221849 3.2,7.49779728 L3.2,20.1420646 C3.2,20.8576433 3.79191739,21.4398618 4.52941176,21.4398618 L18.6705882,21.4398618 C19.4080826,21.4398618 20,20.8576433 20,20.1420646 Z M12.8442748,12.5509993 L16.6,12.5509993 L16.6,15.0509993 L12.8442748,15.0509993 L12.8442748,18.8009993 L10.340458,18.8009993 L10.340458,15.0509993 L6.6,15.0509993 L6.6,12.5509993 L10.340458,12.5509993 L10.340458,8.80099929 L12.8442748,8.80099929 L12.8442748,12.5509993 Z" id="Combined-Shape" fill="#3751FF" fill-rule="nonzero"></path>
    </g>
</svg>