<?xml version="1.0" encoding="UTF-8"?>
<svg width="24px" height="24px" viewBox="0 0 24 24" version="1.1" xmlns="http://www.w3.org/2000/svg" xmlns:xlink="http://www.w3.org/1999/xlink">
    <!-- Generator: Sketch 52 (66869) - http://www.bohemiancoding.com/sketch -->
    <title>Icon/Settings</title>
    <desc>Created with Sketch.</desc>
    <defs>
        <path d="M23.5273989,10.7115037 C23.6258385,11.5919011 23.624231,12.4789848 23.5220627,13.3509263 C23.4461412,13.990309 22.8739948,14.469476 22.2669175,14.4192445 L22.1463874,14.4159254 C21.4153306,14.4159254 20.7296978,14.870245 20.4492812,15.539287 C20.1504223,16.251389 20.3374318,17.0833875 20.9149089,17.6063332 C21.3907832,18.0369296 21.4478328,18.7639104 21.0459271,19.2628757 C20.4937204,19.950633 19.8625056,20.574749 19.1652842,21.1214605 C18.665383,21.5076428 17.9548395,21.4491168 17.5245785,20.9811256 C17.0369475,20.4454461 16.1391849,20.2398887 15.4713006,20.5126762 C14.7678773,20.8006791 14.3106989,21.5130533 14.3385822,22.2830687 C14.3598082,22.9165928 13.8908046,23.4599156 13.2606548,23.5294452 C12.8373933,23.5765305 12.4126864,23.6 11.9867488,23.6 C11.5391735,23.6 11.0930879,23.574139 10.6508653,23.5225542 C10.0131319,23.4491151 9.54290334,22.8900332 9.58061443,22.2499562 C9.62471417,21.4722387 9.17384348,20.7486194 8.45918851,20.4496776 C7.79071658,20.1691123 6.88372152,20.3741698 6.39337593,20.9165234 C5.96168691,21.3921945 5.23513108,21.4494955 4.73563557,21.0470213 C4.05586354,20.4999265 3.43759598,19.8746921 2.90057124,19.1906963 C2.50780332,18.6928999 2.56601119,17.9768919 3.03305497,17.5478725 C3.600645,17.0275944 3.7873347,16.2020968 3.49859804,15.4981569 C3.2107938,14.7978077 2.52335557,14.3441821 1.79019217,14.3627191 C1.17187527,14.3627191 0.54267388,13.9186932 0.472575512,13.2884869 C0.374202904,12.4086875 0.375767815,11.5208833 0.47790197,10.6485564 C0.554001537,10.0159331 1.07509751,9.55952082 1.70898906,9.58021128 C2.54950132,9.58021128 3.26620114,9.13509726 3.54920765,8.46124255 C3.84836738,7.74793135 3.66195697,6.91616576 3.08364794,6.39246453 C2.61008826,5.96159751 2.5524565,5.23630451 2.95357366,4.73738711 C3.50246973,4.05242727 4.13474882,3.42747291 4.83254012,2.88001787 C5.33180995,2.49089545 6.04743158,2.55030798 6.47542645,3.01943964 C6.96105648,3.55353447 7.86288031,3.75916261 8.52716833,3.48783047 C9.23134373,3.19940537 9.68829201,2.48717905 9.66119295,1.7162145 C9.63994226,1.08308944 10.1092776,0.539897462 10.7393784,0.470355291 C11.6060548,0.374203755 12.4802436,0.376716352 13.3496783,0.477273311 C13.9880779,0.55162454 14.4571998,1.10986779 14.4191584,1.74971912 C14.3750799,2.52663103 14.8258268,3.25105321 15.5370479,3.55022862 C16.2090746,3.83062571 17.1166776,3.62551824 17.6042738,3.08552336 C18.0342515,2.60941898 18.7619989,2.55167367 19.260693,2.95185674 C19.9375085,3.49402264 20.5560681,4.11858868 21.0992846,4.80838724 C21.4924049,5.30663024 21.4348376,6.02393617 20.9669535,6.45164405 C20.4003983,6.97133362 20.2135123,7.79785872 20.5013934,8.50211139 C20.783623,9.19076424 21.457884,9.63693745 22.2239888,9.63693745 C22.8384074,9.63693745 23.456957,10.0853321 23.5273989,10.7115037 Z M22.2239888,10.8369375 C20.973873,10.8369375 19.859083,10.0992565 19.3908193,8.95667155 C18.9123182,7.78610002 19.2198949,6.42580616 20.1565464,5.56663599 C19.6697074,4.93263764 19.1156965,4.37324706 18.5100561,3.88809601 C17.6668605,4.80677608 16.2173568,5.13434665 15.0733643,4.65702332 C13.8918486,4.16002286 13.1482796,2.96498889 13.2211793,1.68012529 C12.4319083,1.57912536 11.6483549,1.57687327 10.8713587,1.66307533 C10.9051522,2.94575266 10.1525132,4.11885984 8.98146427,4.59851263 C7.84932523,5.06094165 6.41174744,4.7331543 5.58824736,3.82746951 C4.94770323,4.3149055 4.38113489,4.87491034 3.88939892,5.48853968 C4.84418612,6.36784294 5.15214155,7.74194401 4.65570914,8.92562857 C4.17957346,10.0593352 3.0188557,10.7802113 1.68970825,10.7799014 C1.57827829,11.569449 1.57687475,12.3657042 1.66518209,13.1554854 C1.66028777,13.111484 1.73288984,13.1627191 1.77486683,13.1629148 C2.99300515,13.1317907 4.13253931,13.8837446 4.60868266,15.0424025 C5.08888471,16.2131345 4.78129528,17.5732221 3.84437974,18.4320397 C4.32507769,19.0618528 4.879081,19.6220988 5.48828101,20.1123958 C6.33424874,19.1926014 7.78392501,18.8648521 8.92293245,19.3429071 C10.1069797,19.838196 10.851539,21.0331671 10.7786136,22.3192114 C11.1859119,22.3768303 11.5855745,22.4 11.9867488,22.4 C12.3684356,22.4 12.7488498,22.3789781 13.1285138,22.336743 C13.0933229,21.0549625 13.8466129,19.8811878 15.0170916,19.4019585 C16.1530509,18.9379923 17.5861351,19.2661203 18.4099653,20.1711371 C19.0497499,19.6871315 19.6154637,19.1277799 20.1108,18.5108541 C19.1553878,17.631878 18.8464644,16.2574893 19.3426691,15.0751646 C19.8102048,13.9596773 20.9326323,13.2159254 22.1619053,13.2161261 L22.3310154,13.2214151 C22.4217001,12.4305209 22.4231617,11.6352081 22.3349358,10.845789 C22.3391825,10.8847883 22.2731165,10.8369375 22.2239888,10.8369375 Z M12.0174455,15.0923914 C13.7093721,15.0923914 15.0865654,13.7152107 15.0865654,12.02328 C15.0865654,10.3314008 13.7093418,8.95416861 12.0174455,8.95416861 C10.325478,8.95416861 8.94824371,10.3313902 8.94824371,12.02328 C8.94824371,13.7152214 10.3254477,15.0923914 12.0174455,15.0923914 Z M12.0174455,16.2923914 C9.66271258,16.2923914 7.74824371,14.3779697 7.74824371,12.02328 C7.74824371,9.66864597 9.66273876,7.75416861 12.0174455,7.75416861 C14.3720851,7.75416861 16.2865654,9.66866071 16.2865654,12.02328 C16.2865654,14.3779549 14.3721113,16.2923914 12.0174455,16.2923914 Z" id="path-1"></path>
    </defs>
    <g id="Icon/Settings" stroke="none" stroke-width="1" fill="none" fill-rule="evenodd">
        <mask id="mask-2" fill="white">
            <use xlink:href="#path-1"></use>
        </mask>
        <use id="Shape" fill="#979797" fill-rule="nonzero" xlink:href="#path-1"></use>
        <g id="Colour/Primary-Grey" mask="url(#mask-2)" fill="#6C798B">
            <rect x="0" y="0" width="24" height="24"></rect>
        </g>
    </g>
</svg>