<?xml version="1.0" encoding="UTF-8"?>
<svg width="24px" height="24px" viewBox="0 0 24 24" version="1.1" xmlns="http://www.w3.org/2000/svg" xmlns:xlink="http://www.w3.org/1999/xlink">
    <!-- Generator: Sketch 52 (66869) - http://www.bohemiancoding.com/sketch -->
    <title>Icon/Share</title>
    <desc>Created with Sketch.</desc>
    <defs>
        <path d="M12.6,3.44852814 L12.6,15.1989746 C12.6,15.5303455 12.3313708,15.7989746 12,15.7989746 C11.6686292,15.7989746 11.4,15.5303455 11.4,15.1989746 L11.4,3.44852814 L8.42426407,6.42426407 C8.18994949,6.65857864 7.81005051,6.65857864 7.57573593,6.42426407 C7.34142136,6.18994949 7.34142136,5.81005051 7.57573593,5.57573593 L11.5757359,1.57573593 C11.8100505,1.34142136 12.1899495,1.34142136 12.4242641,1.57573593 L16.4242641,5.57573593 C16.6585786,5.81005051 16.6585786,6.18994949 16.4242641,6.42426407 C16.1899495,6.65857864 15.8100505,6.65857864 15.5757359,6.42426407 L12.6,3.44852814 Z M8,9.4 C8.33137085,9.4 8.6,9.66862915 8.6,10 C8.6,10.3313708 8.33137085,10.6 8,10.6 L5,10.6 C4.22680135,10.6 3.6,11.2268014 3.6,12 L3.6,21.1474609 C3.6,21.9206596 4.22680135,22.5474609 5,22.5474609 L19,22.5474609 C19.7731986,22.5474609 20.4,21.9206596 20.4,21.1474609 L20.4,12 C20.4,11.2268014 19.7731986,10.6 19,10.6 L16,10.6 C15.6686292,10.6 15.4,10.3313708 15.4,10 C15.4,9.66862915 15.6686292,9.4 16,9.4 L19,9.4 C20.4359403,9.4 21.6,10.5640597 21.6,12 L21.6,21.1474609 C21.6,22.5834013 20.4359403,23.7474609 19,23.7474609 L5,23.7474609 C3.56405965,23.7474609 2.4,22.5834013 2.4,21.1474609 L2.4,12 C2.4,10.5640597 3.56405965,9.4 5,9.4 L8,9.4 Z" id="path-1"></path>
    </defs>
    <g id="Icon/Share" stroke="none" stroke-width="1" fill="none" fill-rule="evenodd">
        <mask id="mask-2" fill="white">
            <use xlink:href="#path-1"></use>
        </mask>
        <use id="Combined-Shape" fill="#2D53DA" fill-rule="nonzero" xlink:href="#path-1"></use>
        <g id="Colour/Primary-Grey" mask="url(#mask-2)" fill="#6C798B">
            <rect x="0" y="0" width="24" height="24"></rect>
        </g>
    </g>
</svg>