<?xml version="1.0" encoding="UTF-8"?>
<svg width="24px" height="24px" viewBox="0 0 24 24" version="1.1" xmlns="http://www.w3.org/2000/svg" xmlns:xlink="http://www.w3.org/1999/xlink">
    <!-- Generator: Sketch 52 (66869) - http://www.bohemiancoding.com/sketch -->
    <title>Icon/Supplements-Fill</title>
    <desc>Created with Sketch.</desc>
    <defs>
        <path d="M7.85850149,9.97136204 L4.64358586,15.5397593 C3.36149142,17.760412 4.16171667,20.6285322 6.43934209,21.9435199 L6.13934209,22.4631351 L6.43934209,21.9435199 C8.71695786,23.2585019 11.6009397,22.5174722 12.8829999,20.2968787 L16.0979552,14.7284129 L7.85850149,9.97136204 Z M6.13934209,22.4631351 L5.83934209,22.9827503 C2.99249753,21.3391239 1.98809517,17.7392041 3.60435537,14.9397593 L10.3564141,3.24485042 C11.9726743,0.445405636 15.5924975,-0.484716313 18.4393421,1.15891016 C21.2861867,2.80253664 22.290589,6.40245644 20.6743288,9.20190123 L13.9222304,20.8968787 C12.306003,23.6962667 8.68617463,24.6263699 5.83934209,22.9827503 L6.13934209,22.4631351 Z M19.6259449,8.61775446 C20.9133335,6.38793191 20.1165715,3.51289758 17.8393426,2.19813885 C15.5621136,0.883380111 12.6738799,1.6308811 11.3864912,3.86070365 L8.3154506,9.17990201 L16.5548981,13.9369492 L19.6258712,8.61772023 L20.1454901,8.917714 L19.6259449,8.61775446 Z" id="path-1"></path>
    </defs>
    <g id="Icon/Supplements-Fill" stroke="none" stroke-width="1" fill="none" fill-rule="evenodd">
        <path d="M10.9114636,1.58930755 L10.9114636,25.5881976 C10.9201137,25.5881976 10.9286698,25.5887526 10.9374139,25.5887526 C14.3747985,25.5887526 17.1613562,23.239166 17.1613562,20.3408906 L17.1613562,6.83669382 C17.1613562,3.93833919 14.3747985,1.58875259 10.9374139,1.58875259 C10.9286698,1.58875259 10.9201137,1.58930755 10.9114636,1.58930755 Z" id="Fill-6" fill-opacity="0.1" fill="#3751FF" transform="translate(14.036410, 13.588753) rotate(-330.000000) translate(-14.036410, -13.588753) "></path>
        <mask id="mask-2" fill="white">
            <use xlink:href="#path-1"></use>
        </mask>
        <use id="Combined-Shape" fill="#3751FF" fill-rule="nonzero" xlink:href="#path-1"></use>
    </g>
</svg>