<?xml version="1.0" encoding="UTF-8"?>
<svg width="24px" height="24px" viewBox="0 0 24 24" version="1.1" xmlns="http://www.w3.org/2000/svg" xmlns:xlink="http://www.w3.org/1999/xlink">
    <!-- Generator: Sketch 52 (66869) - http://www.bohemiancoding.com/sketch -->
    <title>Icon/Thumbs</title>
    <desc>Created with Sketch.</desc>
    <defs>
        <path d="M1.5,22.117917 L4.7,22.117917 L4.7,10 L1.5,10 L1.5,22.117917 Z M5.88045048,9.78311232 C7.65508381,9.20940847 9.75943285,7.49191937 9.75943285,5.09125925 L9.75943285,1.35158556 C9.75943285,0.762231451 10.1874087,0.260110844 10.7693197,0.166740856 C11.8100432,-0.000247501707 12.8102514,0.105241473 13.6419733,0.740176594 C14.5577262,1.44057294 14.9699882,2.61235738 14.9699882,4.13169448 L14.9699882,7.89382741 L19.9204411,7.89382741 C21.7171507,7.89382741 23.160728,9.37094182 23.1997246,11.1909948 L23.1864935,11.3962365 L21.8596503,20.1648852 C21.6036647,22.2752739 20.1749517,23.4648399 17.9732178,23.4648399 L8.07955888,23.4648399 C7.20267842,23.4648399 6.40991556,23.1122319 5.82355239,22.5403035 C5.65266397,22.9946495 5.21408356,23.317917 4.7,23.317917 L1.5,23.317917 C0.8372583,23.317917 0.3,22.7806587 0.3,22.117917 L0.3,10 C0.3,9.3372583 0.8372583,8.8 1.5,8.8 L4.7,8.8 C5.28868758,8.8 5.77836781,9.22390084 5.88045048,9.78311232 Z M20.6703427,20.003947 L22,11.2167002 C21.9747932,10.0402475 21.054746,9.09382741 19.9204411,9.09382741 L14.3434423,9.09382741 C14.0283576,9.09382741 13.7699882,8.82436059 13.7699882,8.49574251 L13.7699882,4.13169448 C13.7699882,2.94866941 13.4801103,2.12712422 12.9129579,1.69334836 C12.3016936,1.22671069 11.4509649,1.27271722 10.9594328,1.35158556 L10.9594328,5.09125925 C10.9594328,9.32386006 6.18905081,10.9474211 6,11 L6,20.0959606 C6,21.2921304 6.93265065,22.2648399 8.07955888,22.2648399 L17.9732178,22.2648399 C19.5864514,22.2648399 20.4938952,21.5090178 20.6703427,20.003947 Z" id="path-1"></path>
    </defs>
    <g id="Icon/Thumbs" stroke="none" stroke-width="1" fill="none" fill-rule="evenodd">
        <mask id="mask-2" fill="white">
            <use xlink:href="#path-1"></use>
        </mask>
        <use id="Combined-Shape" fill="#979797" fill-rule="nonzero" xlink:href="#path-1"></use>
        <g id="Colour/Primary-Grey" mask="url(#mask-2)" fill="#6C798B">
            <rect x="0" y="0" width="24" height="24"></rect>
        </g>
    </g>
</svg>